<svg width="28" height="28" viewBox="0 0 28 28" fill="none" xmlns="http://www.w3.org/2000/svg">
<path d="M10.7434 17.7771V23L14.6862 20.8572L18.6289 23V17.3412C17.4213 18.2056 15.9417 18.7144 14.3433 18.7144C13.0359 18.7144 11.808 18.374 10.7434 17.7771Z" fill="white"/>
<path fill-rule="evenodd" clip-rule="evenodd" d="M14.3427 17.6855C17.8457 17.6855 20.6855 14.8457 20.6855 11.3427C20.6855 7.83974 17.8457 5 14.3427 5C10.8397 5 8 7.83974 8 11.3427C8 14.8457 10.8397 17.6855 14.3427 17.6855ZM15.3 10.0252L14.3427 8.08566L13.3855 10.0252L11.2451 10.3363L12.7939 11.846L12.4283 13.9778L14.3427 12.9713L16.2572 13.9778L15.8916 11.846L17.4404 10.3363L15.3 10.0252Z" fill="white"/>
</svg>
