<svg width="384" height="322" viewBox="0 0 384 322" fill="none" xmlns="http://www.w3.org/2000/svg">
<g clip-path="url(#clip0_6465_53796)">
<mask id="mask0_6465_53796" style="mask-type:luminance" maskUnits="userSpaceOnUse" x="93" y="96" width="198" height="117">
<path d="M93.498 197.653C93.498 205.954 100.23 212.686 108.531 212.686H275.479C283.781 212.686 290.512 205.954 290.512 197.653V96.0747H93.498V197.653Z" fill="white"/>
</mask>
<g mask="url(#mask0_6465_53796)">
<path d="M93.498 197.653C93.498 205.954 100.23 212.686 108.531 212.686H275.479C283.781 212.686 290.512 205.954 290.512 197.653V96.0747H93.498V197.653Z" fill="white"/>
</g>
<mask id="mask1_6465_53796" style="mask-type:luminance" maskUnits="userSpaceOnUse" x="93" y="96" width="198" height="117">
<path d="M93.498 197.653C93.498 205.954 100.23 212.686 108.531 212.686H275.479C283.781 212.686 290.512 205.954 290.512 197.653V96.0747H93.498V197.653Z" fill="white"/>
</mask>
<g mask="url(#mask1_6465_53796)">
<path d="M83.1922 121.977C85.4958 114.597 92.7818 108.923 100.742 108.326C108.702 107.729 116.824 112.233 120.314 119.178C124.545 119.136 128.726 121.49 130.782 125.065C132.838 128.648 132.693 133.307 130.415 136.754C135.457 137.624 139.988 140.943 142.223 145.405C144.458 149.867 144.33 155.353 141.907 159.704C147.461 156.88 154.56 157.136 159.884 160.352C165.207 163.569 168.569 169.626 168.381 175.684C171.837 170.258 178.466 166.879 185.061 167.178C191.656 167.476 197.935 171.443 200.87 177.16C203.967 167.903 212.217 160.429 221.977 158.04C231.738 155.651 242.692 158.424 249.995 165.139C260.984 166.853 268.996 178.789 266.129 189.172C272.067 194.087 275.096 202.072 273.859 209.52C272.622 216.969 267.144 223.615 259.918 226.464L70.8554 226.345L54.7305 154.218L83.1922 121.977Z" fill="#D1D1FF"/>
</g>
<mask id="mask2_6465_53796" style="mask-type:luminance" maskUnits="userSpaceOnUse" x="93" y="96" width="198" height="117">
<path d="M93.498 197.653C93.498 205.954 100.23 212.686 108.531 212.686H275.479C283.781 212.686 290.512 205.954 290.512 197.653V96.0747H93.498V197.653Z" fill="white"/>
</mask>
<g mask="url(#mask2_6465_53796)">
<g opacity="0.8">
<path d="M80.1893 145.934C82.416 138.546 89.4632 132.872 97.1588 132.266C104.854 131.661 112.695 136.157 116.057 143.102C120.152 143.059 124.179 145.405 126.167 148.98C128.154 152.555 128.009 157.222 125.808 160.668C130.68 161.539 135.057 164.858 137.207 169.311C139.357 173.765 139.237 179.25 136.891 183.61C142.257 180.786 149.117 181.034 154.261 184.25C159.406 187.458 162.64 193.515 162.46 199.573C165.805 194.147 172.212 190.76 178.585 191.058C184.95 191.357 191.025 195.316 193.849 201.032C196.843 191.775 204.82 184.293 214.256 181.895C223.692 179.498 234.272 182.262 241.327 188.977C251.941 190.683 259.671 202.61 256.898 213.002C262.631 217.908 265.557 225.893 264.346 233.341C263.143 240.79 257.845 247.444 250.866 250.294L68.2108 250.32L52.666 178.201L80.1893 145.934Z" fill="white"/>
</g>
</g>
<mask id="mask3_6465_53796" style="mask-type:luminance" maskUnits="userSpaceOnUse" x="93" y="96" width="198" height="117">
<path d="M93.498 197.653C93.498 205.954 100.23 212.686 108.531 212.686H275.479C283.781 212.686 290.512 205.954 290.512 197.653V96.0747H93.498V197.653Z" fill="white"/>
</mask>
<g mask="url(#mask3_6465_53796)">
<path opacity="0.7" d="M225.407 99.3252C170.693 150.78 131.891 164.661 83.0045 169.618L79.7539 221.576L131.072 239.117C175.889 237.82 218.923 172.937 245.508 117.276L225.407 99.3252Z" fill="#FFF2E0"/>
<path d="M233.111 99.999C224.213 110.527 210.801 120.595 194.975 134.186L216.568 125.389C213.924 129.775 210.067 135.917 207.9 138.554C212.874 136.259 220.885 131.199 223.539 128.52C223.539 132.257 219.034 138.511 217.072 141.932C228.589 132.078 239.066 120.04 242.454 109.469L233.111 99.999Z" fill="#FFA121"/>
<path opacity="0.4" d="M235.636 100.528C230.372 107.507 222.498 114.23 213.189 123.282L225.791 117.301C224.212 120.202 221.917 124.254 220.638 125.995C223.547 124.442 228.239 121.055 229.801 119.272C229.758 121.721 227.088 125.858 225.919 128.111C232.693 121.541 238.887 113.564 240.952 106.619L235.636 100.528Z" fill="white"/>
</g>
<mask id="mask4_6465_53796" style="mask-type:luminance" maskUnits="userSpaceOnUse" x="93" y="96" width="198" height="117">
<path d="M93.498 197.653C93.498 205.954 100.23 212.686 108.531 212.686H275.479C283.781 212.686 290.512 205.954 290.512 197.653V96.0747H93.498V197.653Z" fill="white"/>
</mask>
<g mask="url(#mask4_6465_53796)">
<path d="M153.928 136.276C153.996 137.906 153.928 140.653 152.299 141.591C149.585 143.161 147.453 139.347 146.454 137.428C145.268 135.141 145.567 132.3 148.255 131.276C151.812 129.937 153.8 133.239 153.928 136.276Z" fill="#D1D1FF"/>
</g>
<mask id="mask5_6465_53796" style="mask-type:luminance" maskUnits="userSpaceOnUse" x="93" y="96" width="198" height="117">
<path d="M93.498 197.653C93.498 205.954 100.23 212.686 108.531 212.686H275.479C283.781 212.686 290.512 205.954 290.512 197.653V96.0747H93.498V197.653Z" fill="white"/>
</mask>
<g mask="url(#mask5_6465_53796)">
<path d="M282.569 185.666C282.637 187.296 282.569 190.043 280.939 190.981C278.226 192.551 276.093 188.738 275.095 186.818C273.909 184.531 274.208 181.69 276.895 180.667C280.444 179.327 282.432 182.629 282.569 185.666Z" fill="#D1D1FF"/>
</g>
<mask id="mask6_6465_53796" style="mask-type:luminance" maskUnits="userSpaceOnUse" x="93" y="96" width="198" height="117">
<path d="M93.498 197.653C93.498 205.954 100.23 212.686 108.531 212.686H275.479C283.781 212.686 290.512 205.954 290.512 197.653V96.0747H93.498V197.653Z" fill="white"/>
</mask>
<g mask="url(#mask6_6465_53796)">
<path d="M139.51 120.142C140.763 120.142 141.779 119.126 141.779 117.873C141.779 116.62 140.763 115.604 139.51 115.604C138.256 115.604 137.24 116.62 137.24 117.873C137.24 119.126 138.256 120.142 139.51 120.142Z" fill="#D1D1FF"/>
</g>
<mask id="mask7_6465_53796" style="mask-type:luminance" maskUnits="userSpaceOnUse" x="82" y="86" width="224" height="188">
<path d="M127.642 265.538C131.337 272.972 140.361 276.003 147.795 272.308L297.297 198C304.731 194.305 307.763 185.281 304.068 177.847L258.856 86.8833L82.4297 174.574L127.642 265.538Z" fill="white"/>
</mask>
<g mask="url(#mask7_6465_53796)">
<path d="M256.678 161.995C258.391 161.144 259.089 159.065 258.238 157.352C257.386 155.638 255.307 154.94 253.594 155.791C251.881 156.643 251.182 158.722 252.034 160.435C252.885 162.148 254.964 162.847 256.678 161.995Z" fill="#D1D1FF"/>
</g>
<path d="M275.198 56.7275H108.804C100.528 56.7275 93.8223 63.4505 93.8223 71.7604V96.0843H290.179V71.7519C290.179 63.4505 283.473 56.7275 275.198 56.7275Z" fill="white"/>
<path d="M290.504 96.3997H93.498V71.7516C93.498 63.2881 100.366 56.3945 108.804 56.3945H275.198C283.635 56.3945 290.504 63.2796 290.504 71.7516V96.3997ZM94.1465 95.7513H289.855V71.7516C289.855 63.6465 283.277 57.0429 275.198 57.0429H108.804C100.724 57.0429 94.1465 63.6379 94.1465 71.7516V95.7513Z" fill="#9192FF"/>
<path d="M113.599 84.6434C118.136 84.6434 121.815 80.9535 121.815 76.4018C121.815 71.8501 118.136 68.1602 113.599 68.1602C109.061 68.1602 105.383 71.8501 105.383 76.4018C105.383 80.9535 109.061 84.6434 113.599 84.6434Z" fill="#D1D1FF"/>
<path d="M137.794 84.6434C142.332 84.6434 146.01 80.9535 146.01 76.4018C146.01 71.8501 142.332 68.1602 137.794 68.1602C133.257 68.1602 129.578 71.8501 129.578 76.4018C129.578 80.9535 133.257 84.6434 137.794 84.6434Z" fill="white"/>
<path d="M137.794 84.9676C133.085 84.9676 129.254 81.1283 129.254 76.4018C129.254 71.6752 133.085 67.8359 137.794 67.8359C142.504 67.8359 146.334 71.6752 146.334 76.4018C146.334 81.1198 142.504 84.9676 137.794 84.9676ZM137.794 68.4843C133.443 68.4843 129.902 72.0335 129.902 76.4018C129.902 80.77 133.443 84.3192 137.794 84.3192C142.145 84.3192 145.686 80.77 145.686 76.4018C145.686 72.0335 142.145 68.4843 137.794 68.4843Z" fill="#9192FF"/>
<path d="M201.774 84.2679H166.163C162.639 84.2679 159.781 81.4097 159.781 77.8862V74.9257C159.781 71.4021 162.639 68.5439 166.163 68.5439H201.774C205.298 68.5439 208.156 71.4021 208.156 74.9257V77.8862C208.156 81.4097 205.298 84.2679 201.774 84.2679Z" fill="white"/>
<path d="M200.316 84.5918H167.614C163.109 84.5918 159.449 80.9146 159.449 76.4014C159.449 71.8881 163.109 68.2109 167.614 68.2109H200.316C204.821 68.2109 208.481 71.8881 208.481 76.4014C208.481 80.9146 204.821 84.5918 200.316 84.5918ZM167.614 68.8593C163.468 68.8593 160.098 72.2379 160.098 76.4014C160.098 80.5563 163.468 83.9434 167.614 83.9434H200.316C204.462 83.9434 207.832 80.5648 207.832 76.4014C207.832 72.2464 204.462 68.8593 200.316 68.8593H167.614Z" fill="#9192FF"/>
<path d="M267.308 38.793C254.152 50.3108 231.457 42.3677 224.41 51.5649L244.562 67.5192L267.308 38.793Z" fill="#3335CF"/>
<path d="M224.401 51.5732C223.395 54.2522 223.941 57.2724 225.826 59.4309L240.1 75.7862L244.545 67.5275L224.401 51.5732Z" fill="#D1D1FF"/>
<path d="M297.125 62.4092C288.935 77.8516 301.86 98.1229 294.523 107.098L274.371 91.1439L297.125 62.4092Z" fill="#3335CF"/>
<path d="M294.522 107.098C292.142 108.694 289.079 108.856 286.545 107.516L267.357 97.3637L274.379 91.144L294.522 107.098Z" fill="#D1D1FF"/>
<path d="M307.364 19L289.422 25.5865L305.06 37.9745L307.364 19Z" fill="#1B1B43"/>
<path d="M305.058 37.9742C302.55 66.3592 281.579 92.8416 256.103 107.559L232.889 89.1985C242.632 58.5527 260.77 36.6262 289.411 25.5947L305.058 37.9742Z" fill="#C5C5FF"/>
<path d="M232.898 89.1899L222.822 96.1603L251.625 118.966L256.104 107.55L232.898 89.1899Z" fill="#3335CF"/>
<path d="M283.962 60.8483C289.872 60.1455 294.092 54.7851 293.39 48.8756C292.687 42.9661 287.326 38.7453 281.417 39.4481C275.507 40.1509 271.287 45.5113 271.989 51.4208C272.692 57.3303 278.053 61.5512 283.962 60.8483Z" fill="white"/>
<path d="M283.501 57.7932L283.432 57.1448C284.047 57.0765 284.661 56.9315 285.241 56.7097L285.48 57.3154C284.84 57.5628 284.175 57.7164 283.501 57.7932ZM281.47 57.742C280.796 57.6396 280.148 57.4434 279.525 57.1619L279.789 56.5732C280.352 56.8291 280.95 57.0083 281.564 57.1021L281.47 57.742ZM287.246 56.3343L286.862 55.8138C287.357 55.447 287.809 55.0119 288.193 54.5256L288.705 54.9265C288.287 55.4555 287.792 55.9333 287.246 56.3343ZM277.81 56.0869C277.281 55.6517 276.82 55.1569 276.428 54.6023L276.957 54.2269C277.315 54.7303 277.742 55.191 278.228 55.5835L277.81 56.0869ZM289.498 53.7065L288.918 53.4079C289.208 52.8533 289.422 52.2732 289.55 51.6589L290.181 51.7954C290.044 52.4609 289.814 53.1008 289.498 53.7065ZM275.481 52.8107C275.25 52.1708 275.097 51.5053 275.037 50.8313L275.686 50.7716C275.737 51.3944 275.873 52.0002 276.087 52.5803L275.481 52.8107ZM289.712 49.8075C289.678 49.1847 289.567 48.5704 289.37 47.9817L289.985 47.7855C290.198 48.4254 290.317 49.0994 290.352 49.7819L289.712 49.8075ZM275.762 48.9202L275.122 48.8093C275.242 48.1438 275.447 47.4869 275.745 46.8812L276.334 47.1627C276.069 47.7087 275.873 48.3059 275.762 48.9202ZM288.568 46.301C288.227 45.7806 287.818 45.3113 287.357 44.8933L287.792 44.407C288.304 44.8591 288.748 45.371 289.123 45.9427L288.568 46.301ZM277.341 45.5929L276.846 45.1748C277.289 44.6544 277.793 44.2022 278.356 43.8183L278.723 44.3558C278.211 44.697 277.75 45.1151 277.341 45.5929ZM285.813 43.8609C285.258 43.5879 284.661 43.3832 284.055 43.2637L284.183 42.6238C284.849 42.7518 285.497 42.9736 286.103 43.2808L285.813 43.8609ZM280.387 43.5197L280.173 42.9054C280.813 42.6836 281.479 42.5471 282.161 42.5044L282.204 43.1528C281.581 43.1869 280.967 43.3149 280.387 43.5197Z" fill="#9192FF"/>
<path d="M229.646 117.763L229.032 117.277C228.307 116.705 228.179 115.638 228.759 114.913L249.039 89.3011C249.61 88.5759 250.677 88.4479 251.402 89.0281L252.016 89.5144C252.742 90.086 252.87 91.1525 252.289 91.8777L232.01 117.49C231.438 118.215 230.372 118.343 229.646 117.763Z" fill="#1B1B43"/>
<path d="M94.0518 167.035C93.3542 166.872 92.6566 166.691 91.959 166.491L92.113 165.975C92.7925 166.174 93.4901 166.356 94.1695 166.51L94.0518 167.035ZM89.9025 165.821C89.232 165.576 88.5526 165.314 87.8912 165.033L88.0996 164.544C88.7519 164.824 89.4223 165.078 90.0837 165.314L89.9025 165.821ZM85.9343 164.136C85.2911 163.819 84.6479 163.484 84.0228 163.13L84.2855 162.659C84.9016 163.003 85.5357 163.339 86.1699 163.656L85.9343 164.136ZM82.1655 162.025C81.5586 161.645 80.9606 161.237 80.3808 160.82L80.6888 160.385C81.2686 160.793 81.8575 161.201 82.4555 161.581L82.1655 162.025ZM78.6595 159.515C78.0978 159.072 77.5451 158.6 77.0106 158.12L77.364 157.722C77.8894 158.193 78.442 158.655 78.9947 159.099L78.6595 159.515ZM75.4343 156.644C74.9269 156.136 74.4196 155.611 73.9394 155.085L74.338 154.723C74.8091 155.248 75.3074 155.765 75.8057 156.263L75.4343 156.644ZM72.5442 153.446C72.0913 152.893 71.6473 152.313 71.2306 151.733L71.6655 151.416C72.0822 151.987 72.5171 152.558 72.961 153.101L72.5442 153.446ZM70.0075 149.949C69.618 149.342 69.2465 148.726 68.8932 148.1L69.3553 147.838C69.6995 148.454 70.071 149.061 70.4605 149.659L70.0075 149.949ZM67.8876 146.189C67.5705 145.546 67.2715 144.884 66.9907 144.223L67.4799 144.014C67.7517 144.667 68.0507 145.31 68.3678 145.953L67.8876 146.189ZM62.7327 145.899C62.017 145.845 61.2831 145.745 60.5765 145.591L60.6943 145.065C61.3828 145.219 62.0804 145.319 62.778 145.364L62.7327 145.899ZM64.916 145.89L64.8707 145.355C65.5774 145.301 66.275 145.192 66.9454 145.029L67.0722 145.546C66.3746 145.718 65.6408 145.835 64.916 145.89ZM58.4837 144.975C57.8043 144.721 57.1338 144.413 56.4997 144.06L56.7624 143.589C57.3694 143.924 58.0126 144.223 58.674 144.467L58.4837 144.975ZM69.1469 144.857L68.9385 144.368C69.1288 144.286 69.31 144.205 69.5002 144.114C69.9351 143.897 70.3699 143.643 70.7776 143.371L71.0766 143.815C70.6508 144.105 70.1978 144.368 69.7358 144.594C69.5365 144.685 69.3371 144.776 69.1469 144.857ZM54.6696 142.864C54.0898 142.411 53.5462 141.922 53.057 141.396L53.4466 141.034C53.9177 141.541 54.4431 142.012 54.9958 142.447L54.6696 142.864ZM72.7617 142.411L72.3812 142.03C72.8885 141.523 73.3234 140.98 73.6858 140.409L74.1387 140.69C73.7582 141.297 73.2962 141.876 72.7617 142.411ZM66.2025 142.221C66.0938 141.913 65.9851 141.605 65.8854 141.297C65.7677 140.925 65.6589 140.536 65.5593 140.146L66.0847 140.019C66.1753 140.391 66.275 140.762 66.3928 141.124C66.4924 141.433 66.5921 141.731 66.7008 142.04L66.2025 142.221ZM51.7162 139.666C51.3266 139.059 50.9733 138.416 50.6834 137.736L51.1726 137.528C51.4535 138.171 51.7796 138.796 52.1601 139.376L51.7162 139.666ZM75.0538 138.687L74.5374 138.533C74.7095 137.945 74.791 137.356 74.791 136.767C74.791 136.676 74.791 136.595 74.782 136.504L75.3165 136.477C75.3165 136.568 75.3255 136.667 75.3255 136.758C75.3346 137.41 75.2349 138.053 75.0538 138.687ZM65.215 137.99C65.1878 137.646 65.1697 137.301 65.1697 136.966C65.1697 136.558 65.1878 136.169 65.2331 135.797L65.7677 135.861C65.7224 136.214 65.7042 136.586 65.7042 136.966C65.7042 137.283 65.7224 137.609 65.7495 137.945L65.215 137.99ZM49.9858 135.671C49.8137 134.973 49.6868 134.248 49.6144 133.523L50.1489 133.469C50.2123 134.176 50.3301 134.864 50.5022 135.544L49.9858 135.671ZM74.2656 134.556C73.9666 133.958 73.5408 133.397 73.0425 132.926L73.4049 132.536C73.9575 133.052 74.4196 133.659 74.7457 134.312L74.2656 134.556ZM66.3022 133.877L65.8129 133.65C66.1482 132.926 66.6193 132.337 67.2081 131.884L67.5343 132.309C67.0179 132.708 66.6011 133.234 66.3022 133.877ZM71.3303 131.829C70.8139 131.621 70.2884 131.521 69.7811 131.521C69.6452 131.521 69.5002 131.53 69.3643 131.548L69.3009 131.014C69.464 130.996 69.618 130.987 69.7811 130.987C70.3609 130.987 70.9497 131.105 71.5296 131.331L71.3303 131.829ZM50.1126 131.358L49.5781 131.331C49.6144 130.606 49.705 129.882 49.8409 129.166L50.3663 129.265C50.2304 129.963 50.1398 130.661 50.1126 131.358ZM50.9189 127.245L50.4116 127.064C50.6562 126.375 50.9552 125.705 51.2904 125.071L51.7615 125.325C51.4444 125.932 51.1545 126.584 50.9189 127.245ZM52.903 123.558L52.4772 123.232C52.9211 122.652 53.4194 122.108 53.9539 121.619L54.3163 122.018C53.809 122.48 53.3288 122.996 52.903 123.558Z" fill="#D2D2D2"/>
<path d="M64.8803 125.025H42.0229C38.4172 125.025 35.5 122.099 35.5 118.502V115.477C35.5 111.871 38.4263 108.954 42.0229 108.954H64.8803C68.486 108.954 71.4032 111.88 71.4032 115.477V118.502C71.4123 122.108 68.486 125.025 64.8803 125.025Z" fill="#C5C5FF"/>
<path d="M45.1165 119.433C46.467 119.4 47.5358 118.28 47.5036 116.929C47.4715 115.578 46.3506 114.51 45 114.542C43.6495 114.574 42.5808 115.695 42.6129 117.045C42.6451 118.396 43.7659 119.465 45.1165 119.433Z" fill="white"/>
<path d="M53.4559 119.436C54.8068 119.436 55.902 118.34 55.902 116.99C55.902 115.639 54.8068 114.543 53.4559 114.543C52.1049 114.543 51.0098 115.639 51.0098 116.99C51.0098 118.34 52.1049 119.436 53.4559 119.436Z" fill="white"/>
<path d="M61.8523 119.436C63.2033 119.436 64.2984 118.34 64.2984 116.99C64.2984 115.639 63.2033 114.543 61.8523 114.543C60.5014 114.543 59.4062 115.639 59.4062 116.99C59.4062 118.34 60.5014 119.436 61.8523 119.436Z" fill="white"/>
<path d="M360.091 163.929H333.945V152.025H360.091V163.929ZM334.706 163.168H359.321V152.786H334.706V163.168Z" fill="#D1D1FF"/>
<path d="M346.464 175.073H320.318V163.168H346.464V175.073ZM321.088 174.312H345.703V163.929H321.088V174.312Z" fill="#D1D1FF"/>
<path d="M296.849 320H293.393V319.424H296.849V320ZM289.937 320H286.482V319.424H289.937V320ZM283.026 320H279.57V319.424H283.026V320ZM276.114 320H272.659V319.424H276.114V320ZM269.203 320H265.747V319.424H269.203V320ZM262.291 320H258.836V319.424H262.291V320ZM255.37 320H251.914V319.424H255.37V320ZM248.459 320H245.003V319.424H248.459V320ZM241.547 320H238.092V319.424H241.547V320ZM234.636 320H231.18V319.424H234.636V320ZM227.724 320C226.533 319.99 225.361 319.791 224.239 319.404L224.428 318.858C225.49 319.225 226.592 319.414 227.724 319.424V320ZM297.266 319.99L297.246 319.414C298.378 319.374 299.48 319.146 300.533 318.759L300.731 319.295C299.619 319.712 298.457 319.95 297.266 319.99ZM221.121 317.736C220.177 317.011 219.363 316.157 218.688 315.174L219.165 314.846C219.8 315.78 220.575 316.594 221.468 317.279L221.121 317.736ZM303.79 317.547L303.432 317.1C304.306 316.395 305.061 315.551 305.667 314.608L306.153 314.916C305.508 315.909 304.713 316.792 303.79 317.547ZM217.198 311.976C216.92 310.993 216.781 309.98 216.781 308.948V308.481H217.357V308.948C217.357 309.921 217.486 310.884 217.754 311.817L217.198 311.976ZM307.553 311.678L306.997 311.539C307.206 310.705 307.315 309.831 307.315 308.958V308.183H307.891V308.958C307.891 309.871 307.782 310.785 307.553 311.678ZM217.357 305.025H216.781V301.569H217.357V305.025ZM307.891 304.717H307.315V301.262H307.891V304.717ZM217.357 298.114H216.781V294.658H217.357V298.114ZM307.891 297.806H307.315V294.35H307.891V297.806ZM217.357 291.202H216.781V287.747H217.357V291.202ZM307.891 290.894H307.315V287.439H307.891V290.894ZM217.357 284.291H216.781V280.835H217.357V284.291ZM307.891 283.983H307.315V280.527H307.891V283.983ZM217.357 277.379H216.781V273.924H217.357V277.379ZM307.891 277.072H307.315V273.616H307.891V277.072ZM217.357 270.468H216.781V268.164C216.781 267.777 216.801 267.37 216.841 266.982L217.417 267.042C217.377 267.409 217.357 267.787 217.357 268.164V270.468ZM307.891 270.16H307.315V268.164C307.315 267.688 307.285 267.211 307.216 266.744L307.782 266.665C307.851 267.161 307.881 267.658 307.881 268.154V270.16H307.891ZM218.301 263.815L217.774 263.576C218.271 262.494 218.926 261.511 219.74 260.637L220.158 261.034C219.393 261.849 218.767 262.792 218.301 263.815ZM306.253 263.547C305.756 262.544 305.101 261.62 304.316 260.816L304.723 260.409C305.557 261.253 306.243 262.226 306.769 263.288L306.253 263.547ZM222.799 258.969L222.521 258.462C223.564 257.896 224.686 257.499 225.848 257.281L225.947 257.847C224.855 258.055 223.792 258.433 222.799 258.969ZM301.615 258.83C300.612 258.313 299.54 257.976 298.428 257.807L298.517 257.241C299.689 257.42 300.821 257.777 301.883 258.323L301.615 258.83ZM295.012 257.688H291.556V257.112H295.012V257.688ZM288.1 257.688H284.644V257.112H288.1V257.688ZM281.189 257.688H277.733V257.112H281.189V257.688ZM274.277 257.688H270.822V257.112H274.277V257.688ZM267.366 257.688H263.91V257.112H267.366V257.688ZM260.454 257.688H256.999V257.112H260.454V257.688ZM253.543 257.688H250.087V257.112H253.543V257.688ZM246.632 257.688H243.176V257.112H246.632V257.688ZM239.72 257.688H236.264V257.112H239.72V257.688ZM232.809 257.688H229.353V257.112H232.809V257.688Z" fill="#9192FF"/>
<path d="M288.677 310.02H218.867C213.137 310.02 208.5 305.383 208.5 299.653V256.367C208.5 250.637 213.137 246 218.867 246H288.677C294.406 246 299.044 250.637 299.044 256.367V299.653C299.054 305.373 294.406 310.02 288.677 310.02Z" fill="#9192FF"/>
<path d="M234.051 283.387H224.25V303.297H234.051V283.387Z" fill="white"/>
<path d="M250.465 284.033H240.664V303.308H250.465V284.033Z" fill="white"/>
<path d="M266.891 273.964H257.09V303.298H266.891V273.964Z" fill="white"/>
<path d="M283.305 265.354H273.504V303.297H283.305V265.354Z" fill="white"/>
<path d="M280.077 255.007H227.477V257.31H280.077V255.007Z" fill="white"/>
<path d="M333.064 102.621C326.795 102.621 321.703 97.5208 321.703 91.2607C321.703 84.9914 326.804 79.8999 333.064 79.8999C339.324 79.8999 344.425 85.0005 344.425 91.2607C344.425 97.5208 339.333 102.621 333.064 102.621ZM333.064 80.1445C326.931 80.1445 321.948 85.1364 321.948 91.2607C321.948 97.394 326.94 102.377 333.064 102.377C339.197 102.377 344.18 97.385 344.18 91.2607C344.189 85.1273 339.197 80.1445 333.064 80.1445Z" fill="#9192FF"/>
<path d="M340.747 99.1785C347.577 99.1785 353.114 93.6419 353.114 86.8122C353.114 79.9824 347.577 74.4458 340.747 74.4458C333.917 74.4458 328.381 79.9824 328.381 86.8122C328.381 93.6419 333.917 99.1785 340.747 99.1785Z" fill="#EBEBFF"/>
<path d="M340.757 87.0385L333.898 81.6661L334.125 81.3853L340.748 86.5764L344.435 83.4509L344.67 83.7226L340.757 87.0385Z" fill="#1B1B43"/>
<path d="M215.853 285.998L216.179 285.654L218.245 287.62L217.919 287.964L215.853 285.998ZM211.786 281.975L212.13 281.649C212.782 282.329 213.462 283.017 214.132 283.679L213.797 284.014C213.126 283.353 212.447 282.664 211.786 281.975ZM207.935 277.745L208.298 277.437C208.923 278.161 209.557 278.877 210.182 279.566L209.829 279.883C209.204 279.194 208.56 278.469 207.935 277.745ZM204.311 273.333L204.683 273.043C205.272 273.795 205.87 274.547 206.459 275.262L206.087 275.561C205.498 274.836 204.9 274.085 204.311 273.333ZM200.896 268.739L201.285 268.468C201.838 269.247 202.4 270.017 202.962 270.769L202.581 271.05C202.01 270.298 201.449 269.518 200.896 268.739ZM197.689 264.01L198.087 263.748C198.604 264.545 199.129 265.333 199.664 266.121L199.274 266.384C198.731 265.605 198.205 264.807 197.689 264.01ZM172.875 263.086L172.902 262.615C173.001 262.624 173.092 262.615 173.21 262.624C174.025 262.624 174.85 262.47 175.592 262.171L175.765 262.615C174.967 262.932 174.079 263.104 173.201 263.104C173.119 263.086 172.983 263.095 172.875 263.086ZM167.973 260.187L168.39 259.952C168.852 260.749 169.504 261.419 170.283 261.863L170.048 262.271C169.187 261.791 168.472 261.066 167.973 260.187ZM194.672 259.154L195.08 258.91C195.569 259.725 196.058 260.54 196.556 261.347L196.149 261.6C195.65 260.785 195.161 259.97 194.672 259.154ZM177.83 260.613C178.428 259.97 178.926 259.181 179.307 258.285L179.742 258.466C179.343 259.417 178.818 260.241 178.174 260.93L177.83 260.613ZM167.185 257.216C167.185 256.436 167.348 255.666 167.647 254.996C167.729 254.824 167.81 254.661 167.901 254.498L168.318 254.733C168.236 254.887 168.154 255.041 168.082 255.195C167.81 255.802 167.665 256.5 167.665 257.216V257.342L167.185 257.351V257.216ZM191.075 254.851L191.383 254.489C192.108 255.114 192.797 255.811 193.413 256.545L193.05 256.853C192.443 256.137 191.782 255.467 191.075 254.851ZM180.004 255.594C180.059 255.159 180.086 254.715 180.086 254.271C180.086 253.791 180.059 253.293 179.995 252.804L180.466 252.74C180.53 253.247 180.566 253.764 180.566 254.271C180.566 254.733 180.539 255.195 180.485 255.648L180.004 255.594ZM186.301 251.888L186.491 251.454C187.379 251.834 188.249 252.287 189.055 252.785L188.801 253.193C188.013 252.704 187.18 252.26 186.301 251.888ZM169.858 252.323C170.582 251.771 171.434 251.291 172.394 250.91L172.576 251.354C171.651 251.725 170.836 252.178 170.148 252.704L169.858 252.323ZM180.883 250.412L180.947 249.941C181.898 250.058 182.849 250.249 183.773 250.502L183.646 250.964C182.74 250.711 181.807 250.53 180.883 250.412ZM175.185 250.095C176.109 249.923 177.078 249.814 178.057 249.796L178.066 250.267C177.114 250.294 176.172 250.385 175.266 250.557L175.185 250.095ZM178.12 247.558L178.528 247.313C179.035 248.147 179.461 249.026 179.787 249.923L179.343 250.086C179.026 249.216 178.618 248.364 178.12 247.558ZM176.018 244.904C175.502 244.396 174.94 243.907 174.333 243.472L174.614 243.092C175.239 243.545 175.819 244.043 176.353 244.568C176.498 244.713 176.643 244.858 176.779 245.012L176.435 245.338C176.299 245.184 176.154 245.048 176.018 244.904ZM169.314 240.972L169.45 240.519C170.374 240.8 171.28 241.162 172.132 241.588L171.923 242.014C171.09 241.597 170.211 241.253 169.314 240.972ZM163.797 239.522L163.924 239.06C164.821 239.314 165.745 239.567 166.669 239.803L166.551 240.265C165.627 240.029 164.703 239.776 163.797 239.522ZM158.343 237.801L158.497 237.348C159.376 237.656 160.282 237.955 161.197 238.245L161.052 238.698C160.137 238.408 159.222 238.109 158.343 237.801ZM153.007 235.726L153.197 235.291C154.058 235.663 154.937 236.025 155.833 236.369L155.661 236.813C154.764 236.469 153.867 236.098 153.007 235.726ZM147.834 233.298L148.042 232.872L150.606 234.123L150.398 234.548L147.834 233.298ZM142.697 230.798L142.905 230.372L145.469 231.622L145.261 232.048L142.697 230.798ZM137.569 228.306L137.778 227.881L140.341 229.131L140.133 229.557L137.569 228.306ZM132.432 225.806L132.641 225.38L135.205 226.63L134.996 227.056L132.432 225.806ZM127.305 223.314L127.513 222.889L130.077 224.139L129.869 224.565L127.305 223.314Z" fill="#9192FF"/>
<g filter="url(#filter0_b_6465_53796)">
<rect x="64.5" y="1" width="147" height="34" rx="17" fill="white" fill-opacity="0.2"/>
<rect x="65" y="1.5" width="146" height="33" rx="16.5" stroke="white" stroke-opacity="0.2"/>
<path d="M82.0099 22V13.2727H84.9588C85.6435 13.2727 86.2031 13.3963 86.6378 13.6435C87.0753 13.8878 87.3991 14.2188 87.6094 14.6364C87.8196 15.054 87.9247 15.5199 87.9247 16.0341C87.9247 16.5483 87.8196 17.0156 87.6094 17.4361C87.402 17.8565 87.081 18.1918 86.6463 18.4418C86.2116 18.6889 85.6548 18.8125 84.9759 18.8125H82.8622V17.875H84.9418C85.4105 17.875 85.7869 17.794 86.071 17.6321C86.3551 17.4702 86.5611 17.2514 86.6889 16.9759C86.8196 16.6974 86.8849 16.3835 86.8849 16.0341C86.8849 15.6847 86.8196 15.3722 86.6889 15.0966C86.5611 14.821 86.3537 14.6051 86.0668 14.4489C85.7798 14.2898 85.3991 14.2102 84.9247 14.2102H83.0668V22H82.0099ZM89.4908 22V15.4545H90.4624V16.4432H90.5305C90.6499 16.1193 90.8658 15.8565 91.1783 15.6548C91.4908 15.4531 91.843 15.3523 92.2351 15.3523C92.3089 15.3523 92.4013 15.3537 92.5121 15.3565C92.6229 15.3594 92.7067 15.3636 92.7635 15.3693V16.392C92.7294 16.3835 92.6513 16.3707 92.5291 16.3537C92.4098 16.3338 92.2834 16.3239 92.1499 16.3239C91.8317 16.3239 91.5476 16.3906 91.2976 16.5241C91.0504 16.6548 90.8544 16.8366 90.7095 17.0696C90.5675 17.2997 90.4964 17.5625 90.4964 17.858V22H89.4908ZM96.4155 22.1364C95.8246 22.1364 95.3061 21.9957 94.8601 21.7145C94.4169 21.4332 94.0703 21.0398 93.8203 20.5341C93.5732 20.0284 93.4496 19.4375 93.4496 18.7614C93.4496 18.0795 93.5732 17.4844 93.8203 16.9759C94.0703 16.4673 94.4169 16.0724 94.8601 15.7912C95.3061 15.5099 95.8246 15.3693 96.4155 15.3693C97.0064 15.3693 97.5234 15.5099 97.9666 15.7912C98.4126 16.0724 98.7592 16.4673 99.0064 16.9759C99.2564 17.4844 99.3814 18.0795 99.3814 18.7614C99.3814 19.4375 99.2564 20.0284 99.0064 20.5341C98.7592 21.0398 98.4126 21.4332 97.9666 21.7145C97.5234 21.9957 97.0064 22.1364 96.4155 22.1364ZM96.4155 21.233C96.8643 21.233 97.2337 21.1179 97.5234 20.8878C97.8132 20.6577 98.0277 20.3551 98.1669 19.9801C98.3061 19.6051 98.3757 19.1989 98.3757 18.7614C98.3757 18.3239 98.3061 17.9162 98.1669 17.5384C98.0277 17.1605 97.8132 16.8551 97.5234 16.6222C97.2337 16.3892 96.8643 16.2727 96.4155 16.2727C95.9666 16.2727 95.5973 16.3892 95.3075 16.6222C95.0178 16.8551 94.8033 17.1605 94.6641 17.5384C94.5249 17.9162 94.4553 18.3239 94.4553 18.7614C94.4553 19.1989 94.5249 19.6051 94.6641 19.9801C94.8033 20.3551 95.0178 20.6577 95.3075 20.8878C95.5973 21.1179 95.9666 21.233 96.4155 21.233ZM103.831 15.4545V16.3068H100.303V15.4545H103.831ZM101.36 22V14.5511C101.36 14.1761 101.448 13.8636 101.624 13.6136C101.8 13.3636 102.029 13.1761 102.31 13.0511C102.591 12.9261 102.888 12.8636 103.201 12.8636C103.448 12.8636 103.65 12.8835 103.806 12.9233C103.962 12.9631 104.078 13 104.155 13.0341L103.865 13.9034C103.814 13.8864 103.743 13.8651 103.652 13.8395C103.564 13.8139 103.448 13.8011 103.303 13.8011C102.971 13.8011 102.73 13.8849 102.583 14.0526C102.438 14.2202 102.365 14.4659 102.365 14.7898V22H101.36ZM107.716 22.1364C107.085 22.1364 106.541 21.9972 106.083 21.7188C105.629 21.4375 105.278 21.0455 105.031 20.5426C104.787 20.0369 104.664 19.4489 104.664 18.7784C104.664 18.108 104.787 17.517 105.031 17.0057C105.278 16.4915 105.622 16.0909 106.062 15.804C106.505 15.5142 107.022 15.3693 107.613 15.3693C107.954 15.3693 108.291 15.4261 108.623 15.5398C108.956 15.6534 109.258 15.8381 109.531 16.0938C109.804 16.3466 110.021 16.6818 110.183 17.0994C110.345 17.517 110.426 18.0312 110.426 18.642V19.0682H105.38V18.1989H109.403C109.403 17.8295 109.329 17.5 109.181 17.2102C109.037 16.9205 108.829 16.6918 108.559 16.5241C108.292 16.3565 107.977 16.2727 107.613 16.2727C107.213 16.2727 106.866 16.3722 106.574 16.571C106.284 16.767 106.061 17.0227 105.904 17.3381C105.748 17.6534 105.67 17.9915 105.67 18.3523V18.9318C105.67 19.4261 105.755 19.8452 105.926 20.1889C106.099 20.5298 106.339 20.7898 106.646 20.9688C106.953 21.1449 107.309 21.233 107.716 21.233C107.98 21.233 108.218 21.196 108.431 21.1222C108.647 21.0455 108.833 20.9318 108.99 20.7812C109.146 20.6278 109.267 20.4375 109.352 20.2102L110.324 20.483C110.221 20.8125 110.049 21.1023 109.808 21.3523C109.566 21.5994 109.268 21.7926 108.913 21.9318C108.558 22.0682 108.159 22.1364 107.716 22.1364ZM116.592 16.9205L115.689 17.1761C115.632 17.0256 115.548 16.8793 115.437 16.7372C115.329 16.5923 115.181 16.473 114.994 16.3793C114.806 16.2855 114.566 16.2386 114.274 16.2386C113.873 16.2386 113.539 16.331 113.272 16.5156C113.008 16.6974 112.876 16.929 112.876 17.2102C112.876 17.4602 112.967 17.6577 113.149 17.8026C113.331 17.9474 113.615 18.0682 114.001 18.1648L114.973 18.4034C115.558 18.5455 115.994 18.7628 116.281 19.0554C116.568 19.3452 116.711 19.7187 116.711 20.1761C116.711 20.5511 116.603 20.8864 116.387 21.1818C116.174 21.4773 115.876 21.7102 115.493 21.8807C115.109 22.0511 114.663 22.1364 114.154 22.1364C113.487 22.1364 112.934 21.9915 112.497 21.7017C112.059 21.4119 111.782 20.9886 111.666 20.4318L112.62 20.1932C112.711 20.5455 112.883 20.8097 113.136 20.9858C113.392 21.1619 113.725 21.25 114.137 21.25C114.606 21.25 114.978 21.1506 115.254 20.9517C115.532 20.75 115.672 20.5085 115.672 20.2273C115.672 20 115.592 19.8097 115.433 19.6562C115.274 19.5 115.029 19.3835 114.7 19.3068L113.609 19.0511C113.01 18.9091 112.569 18.6889 112.288 18.3906C112.01 18.0895 111.87 17.7131 111.87 17.2614C111.87 16.892 111.974 16.5653 112.181 16.2812C112.392 15.9972 112.677 15.7741 113.038 15.6122C113.402 15.4503 113.814 15.3693 114.274 15.3693C114.922 15.3693 115.43 15.5114 115.799 15.7955C116.172 16.0795 116.436 16.4545 116.592 16.9205ZM122.862 16.9205L121.958 17.1761C121.901 17.0256 121.817 16.8793 121.707 16.7372C121.599 16.5923 121.451 16.473 121.263 16.3793C121.076 16.2855 120.836 16.2386 120.543 16.2386C120.143 16.2386 119.809 16.331 119.542 16.5156C119.278 16.6974 119.146 16.929 119.146 17.2102C119.146 17.4602 119.237 17.6577 119.418 17.8026C119.6 17.9474 119.884 18.0682 120.271 18.1648L121.242 18.4034C121.827 18.5455 122.263 18.7628 122.55 19.0554C122.837 19.3452 122.981 19.7187 122.981 20.1761C122.981 20.5511 122.873 20.8864 122.657 21.1818C122.444 21.4773 122.146 21.7102 121.762 21.8807C121.379 22.0511 120.933 22.1364 120.424 22.1364C119.756 22.1364 119.204 21.9915 118.766 21.7017C118.329 21.4119 118.052 20.9886 117.935 20.4318L118.89 20.1932C118.981 20.5455 119.153 20.8097 119.406 20.9858C119.661 21.1619 119.995 21.25 120.407 21.25C120.876 21.25 121.248 21.1506 121.523 20.9517C121.802 20.75 121.941 20.5085 121.941 20.2273C121.941 20 121.862 19.8097 121.702 19.6562C121.543 19.5 121.299 19.3835 120.969 19.3068L119.879 19.0511C119.279 18.9091 118.839 18.6889 118.558 18.3906C118.279 18.0895 118.14 17.7131 118.14 17.2614C118.14 16.892 118.244 16.5653 118.451 16.2812C118.661 15.9972 118.947 15.7741 119.308 15.6122C119.671 15.4503 120.083 15.3693 120.543 15.3693C121.191 15.3693 121.7 15.5114 122.069 15.7955C122.441 16.0795 122.705 16.4545 122.862 16.9205ZM124.495 22V15.4545H125.5V22H124.495ZM125.006 14.3636C124.81 14.3636 124.641 14.2969 124.499 14.1634C124.36 14.0298 124.29 13.8693 124.29 13.6818C124.29 13.4943 124.36 13.3338 124.499 13.2003C124.641 13.0668 124.81 13 125.006 13C125.202 13 125.37 13.0668 125.509 13.2003C125.651 13.3338 125.722 13.4943 125.722 13.6818C125.722 13.8693 125.651 14.0298 125.509 14.1634C125.37 14.2969 125.202 14.3636 125.006 14.3636ZM130.001 22.1364C129.411 22.1364 128.892 21.9957 128.446 21.7145C128.003 21.4332 127.656 21.0398 127.406 20.5341C127.159 20.0284 127.036 19.4375 127.036 18.7614C127.036 18.0795 127.159 17.4844 127.406 16.9759C127.656 16.4673 128.003 16.0724 128.446 15.7912C128.892 15.5099 129.411 15.3693 130.001 15.3693C130.592 15.3693 131.109 15.5099 131.553 15.7912C131.999 16.0724 132.345 16.4673 132.592 16.9759C132.842 17.4844 132.967 18.0795 132.967 18.7614C132.967 19.4375 132.842 20.0284 132.592 20.5341C132.345 21.0398 131.999 21.4332 131.553 21.7145C131.109 21.9957 130.592 22.1364 130.001 22.1364ZM130.001 21.233C130.45 21.233 130.82 21.1179 131.109 20.8878C131.399 20.6577 131.614 20.3551 131.753 19.9801C131.892 19.6051 131.962 19.1989 131.962 18.7614C131.962 18.3239 131.892 17.9162 131.753 17.5384C131.614 17.1605 131.399 16.8551 131.109 16.6222C130.82 16.3892 130.45 16.2727 130.001 16.2727C129.553 16.2727 129.183 16.3892 128.893 16.6222C128.604 16.8551 128.389 17.1605 128.25 17.5384C128.111 17.9162 128.041 18.3239 128.041 18.7614C128.041 19.1989 128.111 19.6051 128.25 19.9801C128.389 20.3551 128.604 20.6577 128.893 20.8878C129.183 21.1179 129.553 21.233 130.001 21.233ZM135.508 18.0625V22H134.502V15.4545H135.474V16.4773H135.559C135.713 16.1449 135.946 15.8778 136.258 15.6761C136.571 15.4716 136.974 15.3693 137.468 15.3693C137.912 15.3693 138.299 15.4602 138.632 15.642C138.964 15.821 139.223 16.0938 139.407 16.4602C139.592 16.8239 139.684 17.2841 139.684 17.8409V22H138.679V17.9091C138.679 17.3949 138.545 16.9943 138.278 16.7074C138.011 16.4176 137.645 16.2727 137.179 16.2727C136.858 16.2727 136.571 16.3423 136.318 16.4815C136.068 16.6207 135.87 16.8239 135.725 17.0909C135.581 17.358 135.508 17.6818 135.508 18.0625ZM143.448 22.1534C143.033 22.1534 142.657 22.0753 142.319 21.919C141.981 21.7599 141.712 21.5312 141.513 21.233C141.315 20.9318 141.215 20.5682 141.215 20.142C141.215 19.767 141.289 19.4631 141.437 19.2301C141.585 18.9943 141.782 18.8097 142.029 18.6761C142.276 18.5426 142.549 18.4432 142.847 18.3778C143.148 18.3097 143.451 18.2557 143.755 18.2159C144.153 18.1648 144.475 18.1264 144.722 18.1009C144.972 18.0724 145.154 18.0256 145.268 17.9602C145.384 17.8949 145.442 17.7812 145.442 17.6193V17.5852C145.442 17.1648 145.327 16.8381 145.097 16.6051C144.87 16.3722 144.525 16.2557 144.062 16.2557C143.582 16.2557 143.205 16.3608 142.933 16.571C142.66 16.7812 142.468 17.0057 142.357 17.2443L141.403 16.9034C141.573 16.5057 141.8 16.196 142.085 15.9744C142.371 15.75 142.684 15.5937 143.022 15.5057C143.363 15.4148 143.698 15.3693 144.028 15.3693C144.238 15.3693 144.479 15.3949 144.752 15.446C145.028 15.4943 145.293 15.5952 145.549 15.7486C145.808 15.902 146.022 16.1335 146.192 16.4432C146.363 16.7528 146.448 17.1676 146.448 17.6875V22H145.442V21.1136H145.391C145.323 21.2557 145.21 21.4077 145.05 21.5696C144.891 21.7315 144.68 21.8693 144.415 21.983C144.151 22.0966 143.829 22.1534 143.448 22.1534ZM143.602 21.25C143.999 21.25 144.335 21.1719 144.607 21.0156C144.883 20.8594 145.09 20.6577 145.229 20.4105C145.371 20.1634 145.442 19.9034 145.442 19.6307V18.7102C145.4 18.7614 145.306 18.8082 145.161 18.8509C145.019 18.8906 144.854 18.9261 144.667 18.9574C144.482 18.9858 144.302 19.0114 144.126 19.0341C143.952 19.054 143.812 19.071 143.704 19.0852C143.442 19.1193 143.198 19.1747 142.971 19.2514C142.746 19.3253 142.565 19.4375 142.425 19.5881C142.289 19.7358 142.221 19.9375 142.221 20.1932C142.221 20.5426 142.35 20.8068 142.609 20.9858C142.87 21.1619 143.201 21.25 143.602 21.25ZM149.289 13.2727V22H148.284V13.2727H149.289ZM160.609 16C160.515 15.7131 160.391 15.456 160.238 15.2287C160.087 14.9986 159.907 14.8026 159.697 14.6406C159.489 14.4787 159.254 14.3551 158.989 14.2699C158.725 14.1847 158.435 14.142 158.12 14.142C157.603 14.142 157.133 14.2756 156.71 14.5426C156.286 14.8097 155.95 15.2031 155.7 15.723C155.45 16.2429 155.325 16.8807 155.325 17.6364C155.325 18.392 155.451 19.0298 155.704 19.5497C155.957 20.0696 156.299 20.4631 156.731 20.7301C157.163 20.9972 157.648 21.1307 158.188 21.1307C158.688 21.1307 159.129 21.0241 159.509 20.8111C159.893 20.5952 160.191 20.2912 160.404 19.8991C160.62 19.5043 160.728 19.0398 160.728 18.5057L161.052 18.5739H158.427V17.6364H161.751V18.5739C161.751 19.2926 161.597 19.9176 161.29 20.4489C160.987 20.9801 160.566 21.392 160.029 21.6847C159.495 21.9744 158.881 22.1193 158.188 22.1193C157.415 22.1193 156.737 21.9375 156.151 21.5739C155.569 21.2102 155.114 20.6932 154.788 20.0227C154.464 19.3523 154.302 18.5568 154.302 17.6364C154.302 16.946 154.394 16.3253 154.579 15.7741C154.766 15.2202 155.031 14.7486 155.371 14.3594C155.712 13.9702 156.116 13.6719 156.582 13.4645C157.048 13.2571 157.56 13.1534 158.12 13.1534C158.58 13.1534 159.009 13.223 159.407 13.3622C159.808 13.4986 160.164 13.6932 160.477 13.946C160.792 14.196 161.055 14.4957 161.265 14.8452C161.475 15.1918 161.62 15.5767 161.7 16H160.609ZM163.424 22V15.4545H164.396V16.4432H164.464C164.583 16.1193 164.799 15.8565 165.112 15.6548C165.424 15.4531 165.777 15.3523 166.169 15.3523C166.243 15.3523 166.335 15.3537 166.446 15.3565C166.556 15.3594 166.64 15.3636 166.697 15.3693V16.392C166.663 16.3835 166.585 16.3707 166.463 16.3537C166.343 16.3338 166.217 16.3239 166.083 16.3239C165.765 16.3239 165.481 16.3906 165.231 16.5241C164.984 16.6548 164.788 16.8366 164.643 17.0696C164.501 17.2997 164.43 17.5625 164.43 17.858V22H163.424ZM170.349 22.1364C169.758 22.1364 169.24 21.9957 168.794 21.7145C168.35 21.4332 168.004 21.0398 167.754 20.5341C167.507 20.0284 167.383 19.4375 167.383 18.7614C167.383 18.0795 167.507 17.4844 167.754 16.9759C168.004 16.4673 168.35 16.0724 168.794 15.7912C169.24 15.5099 169.758 15.3693 170.349 15.3693C170.94 15.3693 171.457 15.5099 171.9 15.7912C172.346 16.0724 172.693 16.4673 172.94 16.9759C173.19 17.4844 173.315 18.0795 173.315 18.7614C173.315 19.4375 173.19 20.0284 172.94 20.5341C172.693 21.0398 172.346 21.4332 171.9 21.7145C171.457 21.9957 170.94 22.1364 170.349 22.1364ZM170.349 21.233C170.798 21.233 171.167 21.1179 171.457 20.8878C171.747 20.6577 171.961 20.3551 172.1 19.9801C172.24 19.6051 172.309 19.1989 172.309 18.7614C172.309 18.3239 172.24 17.9162 172.1 17.5384C171.961 17.1605 171.747 16.8551 171.457 16.6222C171.167 16.3892 170.798 16.2727 170.349 16.2727C169.9 16.2727 169.531 16.3892 169.241 16.6222C168.951 16.8551 168.737 17.1605 168.598 17.5384C168.458 17.9162 168.389 18.3239 168.389 18.7614C168.389 19.1989 168.458 19.6051 168.598 19.9801C168.737 20.3551 168.951 20.6577 169.241 20.8878C169.531 21.1179 169.9 21.233 170.349 21.233ZM176.11 22L174.116 15.4545H175.173L176.588 20.4659H176.656L178.054 15.4545H179.127L180.508 20.4489H180.576L181.991 15.4545H183.048L181.054 22H180.065L178.633 16.9716H178.531L177.099 22H176.11ZM187.224 15.4545V16.3068H183.832V15.4545H187.224ZM184.821 13.8864H185.826V20.125C185.826 20.4091 185.868 20.6222 185.95 20.7642C186.035 20.9034 186.143 20.9972 186.274 21.0455C186.407 21.0909 186.548 21.1136 186.696 21.1136C186.806 21.1136 186.897 21.108 186.968 21.0966C187.039 21.0824 187.096 21.071 187.139 21.0625L187.343 21.9659C187.275 21.9915 187.18 22.017 187.058 22.0426C186.936 22.071 186.781 22.0852 186.593 22.0852C186.309 22.0852 186.031 22.0241 185.758 21.902C185.488 21.7798 185.264 21.5938 185.085 21.3438C184.909 21.0938 184.821 20.7784 184.821 20.3977V13.8864ZM189.883 18.0625V22H188.877V13.2727H189.883V16.4773H189.968C190.122 16.1392 190.352 15.8707 190.659 15.6719C190.968 15.4702 191.38 15.3693 191.895 15.3693C192.341 15.3693 192.731 15.4588 193.066 15.6378C193.402 15.8139 193.662 16.0852 193.846 16.4517C194.034 16.8153 194.127 17.2784 194.127 17.8409V22H193.122V17.9091C193.122 17.3892 192.987 16.9872 192.717 16.7031C192.45 16.4162 192.079 16.2727 191.605 16.2727C191.275 16.2727 190.98 16.3423 190.718 16.4815C190.46 16.6207 190.255 16.8239 190.105 17.0909C189.957 17.358 189.883 17.6818 189.883 18.0625Z" fill="white"/>
</g>
<g filter="url(#filter1_b_6465_53796)">
<rect x="249.5" y="202" width="134" height="34" rx="17" fill="white" fill-opacity="0.2"/>
<rect x="250" y="202.5" width="133" height="33" rx="16.5" stroke="white" stroke-opacity="0.2"/>
<path d="M266.686 223V214.273H269.635C270.319 214.273 270.879 214.396 271.314 214.643C271.751 214.888 272.075 215.219 272.285 215.636C272.495 216.054 272.6 216.52 272.6 217.034C272.6 217.548 272.495 218.016 272.285 218.436C272.078 218.857 271.757 219.192 271.322 219.442C270.887 219.689 270.331 219.812 269.652 219.812H267.538V218.875H269.618C270.086 218.875 270.463 218.794 270.747 218.632C271.031 218.47 271.237 218.251 271.365 217.976C271.495 217.697 271.561 217.384 271.561 217.034C271.561 216.685 271.495 216.372 271.365 216.097C271.237 215.821 271.029 215.605 270.743 215.449C270.456 215.29 270.075 215.21 269.6 215.21H267.743V223H266.686ZM276.093 223.153C275.678 223.153 275.301 223.075 274.963 222.919C274.625 222.76 274.357 222.531 274.158 222.233C273.959 221.932 273.86 221.568 273.86 221.142C273.86 220.767 273.934 220.463 274.081 220.23C274.229 219.994 274.426 219.81 274.674 219.676C274.921 219.543 275.194 219.443 275.492 219.378C275.793 219.31 276.096 219.256 276.4 219.216C276.797 219.165 277.12 219.126 277.367 219.101C277.617 219.072 277.799 219.026 277.912 218.96C278.029 218.895 278.087 218.781 278.087 218.619V218.585C278.087 218.165 277.972 217.838 277.742 217.605C277.515 217.372 277.169 217.256 276.706 217.256C276.226 217.256 275.85 217.361 275.577 217.571C275.304 217.781 275.113 218.006 275.002 218.244L274.047 217.903C274.218 217.506 274.445 217.196 274.729 216.974C275.016 216.75 275.328 216.594 275.667 216.506C276.007 216.415 276.343 216.369 276.672 216.369C276.882 216.369 277.124 216.395 277.397 216.446C277.672 216.494 277.938 216.595 278.194 216.749C278.452 216.902 278.667 217.134 278.837 217.443C279.007 217.753 279.093 218.168 279.093 218.688V223H278.087V222.114H278.036C277.968 222.256 277.854 222.408 277.695 222.57C277.536 222.732 277.324 222.869 277.06 222.983C276.796 223.097 276.473 223.153 276.093 223.153ZM276.246 222.25C276.644 222.25 276.979 222.172 277.252 222.016C277.527 221.859 277.735 221.658 277.874 221.411C278.016 221.163 278.087 220.903 278.087 220.631V219.71C278.044 219.761 277.951 219.808 277.806 219.851C277.664 219.891 277.499 219.926 277.311 219.957C277.127 219.986 276.946 220.011 276.77 220.034C276.597 220.054 276.456 220.071 276.348 220.085C276.087 220.119 275.843 220.175 275.615 220.251C275.391 220.325 275.209 220.437 275.07 220.588C274.934 220.736 274.865 220.937 274.865 221.193C274.865 221.543 274.995 221.807 275.253 221.986C275.515 222.162 275.846 222.25 276.246 222.25ZM281.342 225.455C281.171 225.455 281.019 225.44 280.886 225.412C280.752 225.386 280.66 225.361 280.609 225.335L280.864 224.449C281.109 224.511 281.325 224.534 281.512 224.517C281.7 224.5 281.866 224.416 282.011 224.266C282.158 224.118 282.293 223.878 282.415 223.545L282.603 223.034L280.183 216.455H281.273L283.08 221.67H283.148L284.955 216.455H286.046L283.268 223.955C283.143 224.293 282.988 224.572 282.803 224.794C282.619 225.018 282.404 225.185 282.16 225.293C281.918 225.401 281.646 225.455 281.342 225.455ZM290.885 223V214.273H296.152V215.21H291.942V218.159H295.879V219.097H291.942V222.062H296.22V223H290.885ZM298.926 219.062V223H297.92V216.455H298.892V217.477H298.977C299.131 217.145 299.364 216.878 299.676 216.676C299.989 216.472 300.392 216.369 300.886 216.369C301.33 216.369 301.717 216.46 302.05 216.642C302.382 216.821 302.641 217.094 302.825 217.46C303.01 217.824 303.102 218.284 303.102 218.841V223H302.097V218.909C302.097 218.395 301.963 217.994 301.696 217.707C301.429 217.418 301.063 217.273 300.597 217.273C300.276 217.273 299.989 217.342 299.736 217.482C299.486 217.621 299.288 217.824 299.143 218.091C298.999 218.358 298.926 218.682 298.926 219.062ZM305.946 219.062V223H304.94V214.273H305.946V217.477H306.031C306.184 217.139 306.414 216.871 306.721 216.672C307.031 216.47 307.443 216.369 307.957 216.369C308.403 216.369 308.794 216.459 309.129 216.638C309.464 216.814 309.724 217.085 309.909 217.452C310.096 217.815 310.19 218.278 310.19 218.841V223H309.184V218.909C309.184 218.389 309.049 217.987 308.779 217.703C308.512 217.416 308.142 217.273 307.667 217.273C307.338 217.273 307.042 217.342 306.781 217.482C306.522 217.621 306.318 217.824 306.167 218.091C306.02 218.358 305.946 218.682 305.946 219.062ZM313.956 223.153C313.541 223.153 313.165 223.075 312.827 222.919C312.489 222.76 312.22 222.531 312.021 222.233C311.822 221.932 311.723 221.568 311.723 221.142C311.723 220.767 311.797 220.463 311.945 220.23C312.092 219.994 312.29 219.81 312.537 219.676C312.784 219.543 313.057 219.443 313.355 219.378C313.656 219.31 313.959 219.256 314.263 219.216C314.661 219.165 314.983 219.126 315.23 219.101C315.48 219.072 315.662 219.026 315.776 218.96C315.892 218.895 315.95 218.781 315.95 218.619V218.585C315.95 218.165 315.835 217.838 315.605 217.605C315.378 217.372 315.033 217.256 314.57 217.256C314.089 217.256 313.713 217.361 313.44 217.571C313.168 217.781 312.976 218.006 312.865 218.244L311.911 217.903C312.081 217.506 312.308 217.196 312.592 216.974C312.879 216.75 313.192 216.594 313.53 216.506C313.871 216.415 314.206 216.369 314.536 216.369C314.746 216.369 314.987 216.395 315.26 216.446C315.536 216.494 315.801 216.595 316.057 216.749C316.315 216.902 316.53 217.134 316.7 217.443C316.871 217.753 316.956 218.168 316.956 218.688V223H315.95V222.114H315.899C315.831 222.256 315.717 222.408 315.558 222.57C315.399 222.732 315.188 222.869 314.923 222.983C314.659 223.097 314.337 223.153 313.956 223.153ZM314.109 222.25C314.507 222.25 314.842 222.172 315.115 222.016C315.391 221.859 315.598 221.658 315.737 221.411C315.879 221.163 315.95 220.903 315.95 220.631V219.71C315.908 219.761 315.814 219.808 315.669 219.851C315.527 219.891 315.362 219.926 315.175 219.957C314.99 219.986 314.81 220.011 314.634 220.034C314.46 220.054 314.32 220.071 314.212 220.085C313.95 220.119 313.706 220.175 313.479 220.251C313.254 220.325 313.072 220.437 312.933 220.588C312.797 220.736 312.729 220.937 312.729 221.193C312.729 221.543 312.858 221.807 313.116 221.986C313.378 222.162 313.709 222.25 314.109 222.25ZM319.797 219.062V223H318.792V216.455H319.763V217.477H319.848C320.002 217.145 320.235 216.878 320.547 216.676C320.86 216.472 321.263 216.369 321.757 216.369C322.201 216.369 322.588 216.46 322.921 216.642C323.253 216.821 323.512 217.094 323.696 217.46C323.881 217.824 323.973 218.284 323.973 218.841V223H322.968V218.909C322.968 218.395 322.834 217.994 322.567 217.707C322.3 217.418 321.934 217.273 321.468 217.273C321.147 217.273 320.86 217.342 320.607 217.482C320.357 217.621 320.159 217.824 320.015 218.091C319.87 218.358 319.797 218.682 319.797 219.062ZM328.47 223.136C327.857 223.136 327.328 222.991 326.885 222.702C326.442 222.412 326.101 222.013 325.862 221.504C325.624 220.996 325.504 220.415 325.504 219.761C325.504 219.097 325.626 218.51 325.871 218.001C326.118 217.49 326.462 217.091 326.902 216.804C327.345 216.514 327.862 216.369 328.453 216.369C328.913 216.369 329.328 216.455 329.697 216.625C330.067 216.795 330.369 217.034 330.605 217.341C330.841 217.648 330.987 218.006 331.044 218.415H330.038C329.962 218.116 329.791 217.852 329.527 217.622C329.266 217.389 328.913 217.273 328.47 217.273C328.078 217.273 327.734 217.375 327.439 217.58C327.146 217.781 326.918 218.067 326.753 218.436C326.591 218.803 326.51 219.233 326.51 219.727C326.51 220.233 326.589 220.673 326.749 221.048C326.911 221.423 327.138 221.714 327.43 221.922C327.726 222.129 328.072 222.233 328.47 222.233C328.732 222.233 328.969 222.188 329.182 222.097C329.395 222.006 329.575 221.875 329.723 221.705C329.871 221.534 329.976 221.33 330.038 221.091H331.044C330.987 221.477 330.847 221.825 330.622 222.135C330.401 222.442 330.107 222.686 329.74 222.868C329.376 223.047 328.953 223.136 328.47 223.136ZM335.259 223.136C334.628 223.136 334.084 222.997 333.626 222.719C333.172 222.438 332.821 222.045 332.574 221.543C332.33 221.037 332.207 220.449 332.207 219.778C332.207 219.108 332.33 218.517 332.574 218.006C332.821 217.491 333.165 217.091 333.605 216.804C334.048 216.514 334.565 216.369 335.156 216.369C335.497 216.369 335.834 216.426 336.166 216.54C336.499 216.653 336.801 216.838 337.074 217.094C337.347 217.347 337.564 217.682 337.726 218.099C337.888 218.517 337.969 219.031 337.969 219.642V220.068H332.923V219.199H336.946C336.946 218.83 336.872 218.5 336.724 218.21C336.58 217.92 336.372 217.692 336.102 217.524C335.835 217.357 335.52 217.273 335.156 217.273C334.756 217.273 334.409 217.372 334.116 217.571C333.827 217.767 333.604 218.023 333.447 218.338C333.291 218.653 333.213 218.991 333.213 219.352V219.932C333.213 220.426 333.298 220.845 333.469 221.189C333.642 221.53 333.882 221.79 334.189 221.969C334.496 222.145 334.852 222.233 335.259 222.233C335.523 222.233 335.761 222.196 335.974 222.122C336.19 222.045 336.376 221.932 336.533 221.781C336.689 221.628 336.81 221.437 336.895 221.21L337.866 221.483C337.764 221.812 337.592 222.102 337.351 222.352C337.109 222.599 336.811 222.793 336.456 222.932C336.101 223.068 335.702 223.136 335.259 223.136ZM339.499 223V216.455H340.47V217.477H340.555C340.692 217.128 340.912 216.857 341.216 216.663C341.52 216.467 341.885 216.369 342.311 216.369C342.743 216.369 343.102 216.467 343.389 216.663C343.679 216.857 343.905 217.128 344.067 217.477H344.135C344.303 217.139 344.554 216.871 344.889 216.672C345.224 216.47 345.626 216.369 346.095 216.369C346.68 216.369 347.159 216.553 347.531 216.919C347.903 217.283 348.089 217.849 348.089 218.619V223H347.084V218.619C347.084 218.136 346.952 217.791 346.688 217.584C346.423 217.376 346.112 217.273 345.754 217.273C345.294 217.273 344.938 217.412 344.685 217.69C344.432 217.966 344.305 218.315 344.305 218.739V223H343.283V218.517C343.283 218.145 343.162 217.845 342.92 217.618C342.679 217.388 342.368 217.273 341.987 217.273C341.726 217.273 341.482 217.342 341.254 217.482C341.03 217.621 340.848 217.814 340.709 218.061C340.572 218.305 340.504 218.588 340.504 218.909V223H339.499ZM352.673 223.136C352.042 223.136 351.498 222.997 351.04 222.719C350.586 222.438 350.235 222.045 349.988 221.543C349.744 221.037 349.621 220.449 349.621 219.778C349.621 219.108 349.744 218.517 349.988 218.006C350.235 217.491 350.579 217.091 351.019 216.804C351.462 216.514 351.979 216.369 352.57 216.369C352.911 216.369 353.248 216.426 353.58 216.54C353.913 216.653 354.215 216.838 354.488 217.094C354.761 217.347 354.978 217.682 355.14 218.099C355.302 218.517 355.383 219.031 355.383 219.642V220.068H350.337V219.199H354.36C354.36 218.83 354.286 218.5 354.138 218.21C353.994 217.92 353.786 217.692 353.516 217.524C353.249 217.357 352.934 217.273 352.57 217.273C352.17 217.273 351.823 217.372 351.531 217.571C351.241 217.767 351.018 218.023 350.862 218.338C350.705 218.653 350.627 218.991 350.627 219.352V219.932C350.627 220.426 350.712 220.845 350.883 221.189C351.056 221.53 351.296 221.79 351.603 221.969C351.91 222.145 352.266 222.233 352.673 222.233C352.937 222.233 353.175 222.196 353.388 222.122C353.604 222.045 353.79 221.932 353.947 221.781C354.103 221.628 354.224 221.437 354.309 221.21L355.281 221.483C355.178 221.812 355.006 222.102 354.765 222.352C354.523 222.599 354.225 222.793 353.87 222.932C353.515 223.068 353.116 223.136 352.673 223.136ZM357.918 219.062V223H356.913V216.455H357.884V217.477H357.969C358.123 217.145 358.356 216.878 358.668 216.676C358.981 216.472 359.384 216.369 359.879 216.369C360.322 216.369 360.71 216.46 361.042 216.642C361.374 216.821 361.633 217.094 361.817 217.46C362.002 217.824 362.094 218.284 362.094 218.841V223H361.089V218.909C361.089 218.395 360.955 217.994 360.688 217.707C360.421 217.418 360.055 217.273 359.589 217.273C359.268 217.273 358.981 217.342 358.728 217.482C358.478 217.621 358.281 217.824 358.136 218.091C357.991 218.358 357.918 218.682 357.918 219.062ZM366.779 216.455V217.307H363.387V216.455H366.779ZM364.375 214.886H365.381V221.125C365.381 221.409 365.422 221.622 365.505 221.764C365.59 221.903 365.698 221.997 365.828 222.045C365.962 222.091 366.103 222.114 366.25 222.114C366.361 222.114 366.452 222.108 366.523 222.097C366.594 222.082 366.651 222.071 366.694 222.062L366.898 222.966C366.83 222.991 366.735 223.017 366.613 223.043C366.49 223.071 366.336 223.085 366.148 223.085C365.864 223.085 365.586 223.024 365.313 222.902C365.043 222.78 364.819 222.594 364.64 222.344C364.463 222.094 364.375 221.778 364.375 221.398V214.886Z" fill="white"/>
</g>
<g filter="url(#filter2_b_6465_53796)">
<rect x="1" y="208" width="149" height="34" rx="17" fill="white" fill-opacity="0.2"/>
<rect x="1.5" y="208.5" width="148" height="33" rx="16.5" stroke="white" stroke-opacity="0.2"/>
<path d="M25.3198 223H24.263C24.2005 222.696 24.0911 222.429 23.9348 222.199C23.7814 221.969 23.5939 221.776 23.3723 221.619C23.1536 221.46 22.9107 221.341 22.6436 221.261C22.3766 221.182 22.0982 221.142 21.8084 221.142C21.28 221.142 20.8013 221.276 20.3723 221.543C19.9462 221.81 19.6067 222.203 19.3539 222.723C19.1039 223.243 18.9789 223.881 18.9789 224.636C18.9789 225.392 19.1039 226.03 19.3539 226.55C19.6067 227.07 19.9462 227.463 20.3723 227.73C20.8013 227.997 21.28 228.131 21.8084 228.131C22.0982 228.131 22.3766 228.091 22.6436 228.011C22.9107 227.932 23.1536 227.814 23.3723 227.658C23.5939 227.499 23.7814 227.304 23.9348 227.074C24.0911 226.841 24.2005 226.574 24.263 226.273H25.3198C25.2402 226.719 25.0953 227.118 24.8851 227.47C24.6749 227.822 24.4135 228.122 24.101 228.369C23.7885 228.614 23.4377 228.8 23.0485 228.928C22.6621 229.055 22.2488 229.119 21.8084 229.119C21.0641 229.119 20.4022 228.938 19.8226 228.574C19.2431 228.21 18.7871 227.693 18.4547 227.023C18.1223 226.352 17.9561 225.557 17.9561 224.636C17.9561 223.716 18.1223 222.92 18.4547 222.25C18.7871 221.58 19.2431 221.062 19.8226 220.699C20.4022 220.335 21.0641 220.153 21.8084 220.153C22.2488 220.153 22.6621 220.217 23.0485 220.345C23.4377 220.473 23.7885 220.661 24.101 220.908C24.4135 221.152 24.6749 221.45 24.8851 221.803C25.0953 222.152 25.2402 222.551 25.3198 223ZM28.8173 229.153C28.4025 229.153 28.0261 229.075 27.688 228.919C27.35 228.76 27.0815 228.531 26.8826 228.233C26.6838 227.932 26.5843 227.568 26.5843 227.142C26.5843 226.767 26.6582 226.463 26.8059 226.23C26.9537 225.994 27.1511 225.81 27.3983 225.676C27.6454 225.543 27.9181 225.443 28.2164 225.378C28.5176 225.31 28.8201 225.256 29.1241 225.216C29.5218 225.165 29.8443 225.126 30.0914 225.101C30.3414 225.072 30.5233 225.026 30.6369 224.96C30.7534 224.895 30.8116 224.781 30.8116 224.619V224.585C30.8116 224.165 30.6966 223.838 30.4664 223.605C30.2392 223.372 29.894 223.256 29.4309 223.256C28.9508 223.256 28.5744 223.361 28.3017 223.571C28.0289 223.781 27.8372 224.006 27.7264 224.244L26.7718 223.903C26.9423 223.506 27.1696 223.196 27.4537 222.974C27.7406 222.75 28.0531 222.594 28.3912 222.506C28.7321 222.415 29.0673 222.369 29.3968 222.369C29.6071 222.369 29.8485 222.395 30.1213 222.446C30.3968 222.494 30.6625 222.595 30.9181 222.749C31.1767 222.902 31.3912 223.134 31.5616 223.443C31.7321 223.753 31.8173 224.168 31.8173 224.688V229H30.8116V228.114H30.7605C30.6923 228.256 30.5787 228.408 30.4196 228.57C30.2605 228.732 30.0488 228.869 29.7846 228.983C29.5204 229.097 29.198 229.153 28.8173 229.153ZM28.9707 228.25C29.3684 228.25 29.7037 228.172 29.9764 228.016C30.252 227.859 30.4593 227.658 30.5985 227.411C30.7406 227.163 30.8116 226.903 30.8116 226.631V225.71C30.769 225.761 30.6752 225.808 30.5304 225.851C30.3883 225.891 30.2235 225.926 30.036 225.957C29.8514 225.986 29.671 226.011 29.4949 226.034C29.3216 226.054 29.1809 226.071 29.073 226.085C28.8116 226.119 28.5673 226.175 28.34 226.251C28.1156 226.325 27.9338 226.437 27.7946 226.588C27.6582 226.736 27.59 226.937 27.59 227.193C27.59 227.543 27.7193 227.807 27.9778 227.986C28.2392 228.162 28.5701 228.25 28.9707 228.25ZM33.6529 229V222.455H34.6245V223.443H34.6926C34.812 223.119 35.0279 222.857 35.3404 222.655C35.6529 222.453 36.0051 222.352 36.3972 222.352C36.4711 222.352 36.5634 222.354 36.6742 222.357C36.785 222.359 36.8688 222.364 36.9256 222.369V223.392C36.8915 223.384 36.8134 223.371 36.6912 223.354C36.5719 223.334 36.4455 223.324 36.312 223.324C35.9938 223.324 35.7097 223.391 35.4597 223.524C35.2125 223.655 35.0165 223.837 34.8716 224.07C34.7296 224.3 34.6586 224.562 34.6586 224.858V229H33.6529ZM40.6628 229.136C40.0321 229.136 39.4881 228.997 39.0307 228.719C38.5762 228.438 38.2253 228.045 37.9782 227.543C37.7338 227.037 37.6117 226.449 37.6117 225.778C37.6117 225.108 37.7338 224.517 37.9782 224.006C38.2253 223.491 38.5691 223.091 39.0094 222.804C39.4526 222.514 39.9696 222.369 40.5605 222.369C40.9015 222.369 41.2381 222.426 41.5705 222.54C41.9029 222.653 42.2054 222.838 42.4782 223.094C42.7509 223.347 42.9682 223.682 43.1301 224.099C43.2921 224.517 43.373 225.031 43.373 225.642V226.068H38.3276V225.199H42.3503C42.3503 224.83 42.2765 224.5 42.1287 224.21C41.9838 223.92 41.7765 223.692 41.5066 223.524C41.2395 223.357 40.9242 223.273 40.5605 223.273C40.16 223.273 39.8134 223.372 39.5208 223.571C39.231 223.767 39.008 224.023 38.8517 224.338C38.6955 224.653 38.6174 224.991 38.6174 225.352V225.932C38.6174 226.426 38.7026 226.845 38.873 227.189C39.0463 227.53 39.2864 227.79 39.5932 227.969C39.9 228.145 40.2566 228.233 40.6628 228.233C40.927 228.233 41.1657 228.196 41.3787 228.122C41.5946 228.045 41.7807 227.932 41.937 227.781C42.0932 227.628 42.214 227.437 42.2992 227.21L43.2708 227.483C43.1685 227.812 42.9966 228.102 42.7551 228.352C42.5137 228.599 42.2154 228.793 41.8603 228.932C41.5051 229.068 41.106 229.136 40.6628 229.136ZM47.6472 229.136C47.0165 229.136 46.4725 228.997 46.0151 228.719C45.5605 228.438 45.2097 228.045 44.9625 227.543C44.7182 227.037 44.5961 226.449 44.5961 225.778C44.5961 225.108 44.7182 224.517 44.9625 224.006C45.2097 223.491 45.5534 223.091 45.9938 222.804C46.437 222.514 46.954 222.369 47.5449 222.369C47.8858 222.369 48.2225 222.426 48.5549 222.54C48.8873 222.653 49.1898 222.838 49.4625 223.094C49.7353 223.347 49.9526 223.682 50.1145 224.099C50.2765 224.517 50.3574 225.031 50.3574 225.642V226.068H45.312V225.199H49.3347C49.3347 224.83 49.2608 224.5 49.1131 224.21C48.9682 223.92 48.7608 223.692 48.4909 223.524C48.2239 223.357 47.9086 223.273 47.5449 223.273C47.1444 223.273 46.7978 223.372 46.5051 223.571C46.2154 223.767 45.9924 224.023 45.8361 224.338C45.6799 224.653 45.6017 224.991 45.6017 225.352V225.932C45.6017 226.426 45.687 226.845 45.8574 227.189C46.0307 227.53 46.2708 227.79 46.5776 227.969C46.8844 228.145 47.2409 228.233 47.6472 228.233C47.9114 228.233 48.15 228.196 48.3631 228.122C48.579 228.045 48.7651 227.932 48.9213 227.781C49.0776 227.628 49.1983 227.437 49.2836 227.21L50.2551 227.483C50.1529 227.812 49.981 228.102 49.7395 228.352C49.498 228.599 49.1998 228.793 48.8446 228.932C48.4895 229.068 48.0904 229.136 47.6472 229.136ZM51.8873 229V222.455H52.8588V223.443H52.927C53.0463 223.119 53.2623 222.857 53.5748 222.655C53.8873 222.453 54.2395 222.352 54.6316 222.352C54.7054 222.352 54.7978 222.354 54.9086 222.357C55.0194 222.359 55.1032 222.364 55.16 222.369V223.392C55.1259 223.384 55.0478 223.371 54.9256 223.354C54.8063 223.334 54.6799 223.324 54.5463 223.324C54.2282 223.324 53.9441 223.391 53.6941 223.524C53.4469 223.655 53.2509 223.837 53.106 224.07C52.964 224.3 52.8929 224.562 52.8929 224.858V229H51.8873ZM62.5566 229H59.8635V220.273H62.676C63.5225 220.273 64.247 220.447 64.8493 220.797C65.4515 221.143 65.9132 221.642 66.2342 222.293C66.5552 222.94 66.7157 223.716 66.7157 224.619C66.7157 225.528 66.5538 226.311 66.2299 226.967C65.9061 227.621 65.4345 228.124 64.8152 228.476C64.1958 228.825 63.443 229 62.5566 229ZM60.9203 228.062H62.4885C63.21 228.062 63.8081 227.923 64.2825 227.645C64.7569 227.366 65.1106 226.97 65.3436 226.456C65.5765 225.942 65.693 225.33 65.693 224.619C65.693 223.915 65.5779 223.308 65.3478 222.8C65.1177 222.288 64.774 221.896 64.3166 221.624C63.8592 221.348 63.2896 221.21 62.6078 221.21H60.9203V228.062ZM71.0964 229.136C70.4657 229.136 69.9217 228.997 69.4643 228.719C69.0098 228.438 68.6589 228.045 68.4118 227.543C68.1674 227.037 68.0453 226.449 68.0453 225.778C68.0453 225.108 68.1674 224.517 68.4118 224.006C68.6589 223.491 69.0027 223.091 69.443 222.804C69.8862 222.514 70.4032 222.369 70.9941 222.369C71.335 222.369 71.6717 222.426 72.0041 222.54C72.3365 222.653 72.639 222.838 72.9118 223.094C73.1845 223.347 73.4018 223.682 73.5637 224.099C73.7257 224.517 73.8066 225.031 73.8066 225.642V226.068H68.7612V225.199H72.7839C72.7839 224.83 72.71 224.5 72.5623 224.21C72.4174 223.92 72.21 223.692 71.9402 223.524C71.6731 223.357 71.3578 223.273 70.9941 223.273C70.5936 223.273 70.247 223.372 69.9544 223.571C69.6646 223.767 69.4416 224.023 69.2853 224.338C69.1291 224.653 69.051 224.991 69.051 225.352V225.932C69.051 226.426 69.1362 226.845 69.3066 227.189C69.4799 227.53 69.72 227.79 70.0268 227.969C70.3336 228.145 70.6902 228.233 71.0964 228.233C71.3606 228.233 71.5993 228.196 71.8123 228.122C72.0282 228.045 72.2143 227.932 72.3706 227.781C72.5268 227.628 72.6475 227.437 72.7328 227.21L73.7044 227.483C73.6021 227.812 73.4302 228.102 73.1887 228.352C72.9473 228.599 72.649 228.793 72.2939 228.932C71.9387 229.068 71.5396 229.136 71.0964 229.136ZM80.4895 222.455L78.0691 229H77.0463L74.6259 222.455H75.7168L77.5236 227.67H77.5918L79.3986 222.455H80.4895ZM84.3269 229.136C83.6962 229.136 83.1522 228.997 82.6948 228.719C82.2402 228.438 81.8894 228.045 81.6422 227.543C81.3979 227.037 81.2757 226.449 81.2757 225.778C81.2757 225.108 81.3979 224.517 81.6422 224.006C81.8894 223.491 82.2331 223.091 82.6735 222.804C83.1167 222.514 83.6337 222.369 84.2246 222.369C84.5655 222.369 84.9022 222.426 85.2346 222.54C85.5669 222.653 85.8695 222.838 86.1422 223.094C86.415 223.347 86.6323 223.682 86.7942 224.099C86.9561 224.517 87.0371 225.031 87.0371 225.642V226.068H81.9917V225.199H86.0144C86.0144 224.83 85.9405 224.5 85.7928 224.21C85.6479 223.92 85.4405 223.692 85.1706 223.524C84.9036 223.357 84.5882 223.273 84.2246 223.273C83.824 223.273 83.4775 223.372 83.1848 223.571C82.8951 223.767 82.6721 224.023 82.5158 224.338C82.3596 224.653 82.2814 224.991 82.2814 225.352V225.932C82.2814 226.426 82.3667 226.845 82.5371 227.189C82.7104 227.53 82.9505 227.79 83.2573 227.969C83.5641 228.145 83.9206 228.233 84.3269 228.233C84.5911 228.233 84.8297 228.196 85.0428 228.122C85.2587 228.045 85.4448 227.932 85.601 227.781C85.7573 227.628 85.878 227.437 85.9632 227.21L86.9348 227.483C86.8326 227.812 86.6607 228.102 86.4192 228.352C86.1777 228.599 85.8794 228.793 85.5243 228.932C85.1692 229.068 84.7701 229.136 84.3269 229.136ZM89.5726 220.273V229H88.5669V220.273H89.5726ZM94.0737 229.136C93.4828 229.136 92.9643 228.996 92.5183 228.714C92.0751 228.433 91.7285 228.04 91.4785 227.534C91.2314 227.028 91.1078 226.437 91.1078 225.761C91.1078 225.08 91.2314 224.484 91.4785 223.976C91.7285 223.467 92.0751 223.072 92.5183 222.791C92.9643 222.51 93.4828 222.369 94.0737 222.369C94.6646 222.369 95.1816 222.51 95.6248 222.791C96.0708 223.072 96.4174 223.467 96.6646 223.976C96.9146 224.484 97.0396 225.08 97.0396 225.761C97.0396 226.437 96.9146 227.028 96.6646 227.534C96.4174 228.04 96.0708 228.433 95.6248 228.714C95.1816 228.996 94.6646 229.136 94.0737 229.136ZM94.0737 228.233C94.5225 228.233 94.8919 228.118 95.1816 227.888C95.4714 227.658 95.6859 227.355 95.8251 226.98C95.9643 226.605 96.0339 226.199 96.0339 225.761C96.0339 225.324 95.9643 224.916 95.8251 224.538C95.6859 224.161 95.4714 223.855 95.1816 223.622C94.8919 223.389 94.5225 223.273 94.0737 223.273C93.6248 223.273 93.2555 223.389 92.9657 223.622C92.676 223.855 92.4615 224.161 92.3223 224.538C92.1831 224.916 92.1135 225.324 92.1135 225.761C92.1135 226.199 92.1831 226.605 92.3223 226.98C92.4615 227.355 92.676 227.658 92.9657 227.888C93.2555 228.118 93.6248 228.233 94.0737 228.233ZM98.5748 231.455V222.455H99.5463V223.494H99.6657C99.7395 223.381 99.8418 223.236 99.9725 223.06C100.106 222.881 100.296 222.722 100.544 222.582C100.794 222.44 101.132 222.369 101.558 222.369C102.109 222.369 102.595 222.507 103.015 222.783C103.436 223.058 103.764 223.449 103.999 223.955C104.235 224.46 104.353 225.057 104.353 225.744C104.353 226.438 104.235 227.038 103.999 227.547C103.764 228.053 103.437 228.445 103.019 228.723C102.602 228.999 102.12 229.136 101.575 229.136C101.154 229.136 100.818 229.067 100.565 228.928C100.312 228.786 100.117 228.625 99.981 228.446C99.8446 228.264 99.7395 228.114 99.6657 227.994H99.5804V231.455H98.5748ZM99.5634 225.727C99.5634 226.222 99.6358 226.658 99.7807 227.036C99.9256 227.411 100.137 227.705 100.416 227.918C100.694 228.128 101.035 228.233 101.438 228.233C101.859 228.233 102.21 228.122 102.491 227.901C102.775 227.676 102.988 227.375 103.13 226.997C103.275 226.616 103.347 226.193 103.347 225.727C103.347 225.267 103.276 224.852 103.134 224.483C102.995 224.111 102.784 223.817 102.499 223.601C102.218 223.382 101.865 223.273 101.438 223.273C101.029 223.273 100.686 223.376 100.407 223.584C100.129 223.788 99.9185 224.075 99.7765 224.445C99.6344 224.811 99.5634 225.239 99.5634 225.727ZM105.887 229V222.455H106.859V223.477H106.944C107.08 223.128 107.301 222.857 107.605 222.663C107.909 222.467 108.274 222.369 108.7 222.369C109.132 222.369 109.491 222.467 109.778 222.663C110.068 222.857 110.294 223.128 110.455 223.477H110.524C110.691 223.139 110.943 222.871 111.278 222.672C111.613 222.47 112.015 222.369 112.484 222.369C113.069 222.369 113.548 222.553 113.92 222.919C114.292 223.283 114.478 223.849 114.478 224.619V229H113.472V224.619C113.472 224.136 113.34 223.791 113.076 223.584C112.812 223.376 112.501 223.273 112.143 223.273C111.683 223.273 111.326 223.412 111.073 223.69C110.82 223.966 110.694 224.315 110.694 224.739V229H109.671V224.517C109.671 224.145 109.551 223.845 109.309 223.618C109.068 223.388 108.757 223.273 108.376 223.273C108.115 223.273 107.87 223.342 107.643 223.482C107.419 223.621 107.237 223.814 107.097 224.061C106.961 224.305 106.893 224.588 106.893 224.909V229H105.887ZM119.061 229.136C118.431 229.136 117.887 228.997 117.429 228.719C116.975 228.438 116.624 228.045 116.377 227.543C116.132 227.037 116.01 226.449 116.01 225.778C116.01 225.108 116.132 224.517 116.377 224.006C116.624 223.491 116.968 223.091 117.408 222.804C117.851 222.514 118.368 222.369 118.959 222.369C119.3 222.369 119.637 222.426 119.969 222.54C120.301 222.653 120.604 222.838 120.877 223.094C121.149 223.347 121.367 223.682 121.529 224.099C121.691 224.517 121.771 225.031 121.771 225.642V226.068H116.726V225.199H120.749C120.749 224.83 120.675 224.5 120.527 224.21C120.382 223.92 120.175 223.692 119.905 223.524C119.638 223.357 119.323 223.273 118.959 223.273C118.558 223.273 118.212 223.372 117.919 223.571C117.629 223.767 117.406 224.023 117.25 224.338C117.094 224.653 117.016 224.991 117.016 225.352V225.932C117.016 226.426 117.101 226.845 117.271 227.189C117.445 227.53 117.685 227.79 117.992 227.969C118.298 228.145 118.655 228.233 119.061 228.233C119.325 228.233 119.564 228.196 119.777 228.122C119.993 228.045 120.179 227.932 120.335 227.781C120.492 227.628 120.612 227.437 120.698 227.21L121.669 227.483C121.567 227.812 121.395 228.102 121.154 228.352C120.912 228.599 120.614 228.793 120.259 228.932C119.904 229.068 119.504 229.136 119.061 229.136ZM124.307 225.062V229H123.301V222.455H124.273V223.477H124.358C124.512 223.145 124.744 222.878 125.057 222.676C125.369 222.472 125.773 222.369 126.267 222.369C126.71 222.369 127.098 222.46 127.431 222.642C127.763 222.821 128.021 223.094 128.206 223.46C128.391 223.824 128.483 224.284 128.483 224.841V229H127.477V224.909C127.477 224.395 127.344 223.994 127.077 223.707C126.81 223.418 126.443 223.273 125.977 223.273C125.656 223.273 125.369 223.342 125.117 223.482C124.867 223.621 124.669 223.824 124.524 224.091C124.379 224.358 124.307 224.682 124.307 225.062ZM133.167 222.455V223.307H129.775V222.455H133.167ZM130.764 220.886H131.77V227.125C131.77 227.409 131.811 227.622 131.893 227.764C131.979 227.903 132.086 227.997 132.217 228.045C132.351 228.091 132.491 228.114 132.639 228.114C132.75 228.114 132.841 228.108 132.912 228.097C132.983 228.082 133.04 228.071 133.082 228.062L133.287 228.966C133.219 228.991 133.123 229.017 133.001 229.043C132.879 229.071 132.724 229.085 132.537 229.085C132.253 229.085 131.974 229.024 131.702 228.902C131.432 228.78 131.207 228.594 131.028 228.344C130.852 228.094 130.764 227.778 130.764 227.398V220.886Z" fill="white"/>
</g>
<g filter="url(#filter3_b_6465_53796)">
<rect x="77.5" y="285" width="142" height="33" rx="16.5" fill="white" fill-opacity="0.2"/>
<rect x="78" y="285.5" width="141" height="32" rx="16" stroke="white" stroke-opacity="0.2"/>
<path d="M101.314 300.5H100.346C100.288 300.221 100.188 299.977 100.045 299.766C99.9043 299.555 99.7324 299.378 99.5293 299.234C99.3288 299.089 99.1061 298.979 98.8613 298.906C98.6165 298.833 98.3613 298.797 98.0957 298.797C97.6113 298.797 97.1725 298.919 96.7793 299.164C96.3887 299.409 96.0775 299.77 95.8457 300.246C95.6165 300.723 95.502 301.307 95.502 302C95.502 302.693 95.6165 303.277 95.8457 303.754C96.0775 304.23 96.3887 304.591 96.7793 304.836C97.1725 305.081 97.6113 305.203 98.0957 305.203C98.3613 305.203 98.6165 305.167 98.8613 305.094C99.1061 305.021 99.3288 304.913 99.5293 304.77C99.7324 304.624 99.9043 304.445 100.045 304.234C100.188 304.021 100.288 303.776 100.346 303.5H101.314C101.242 303.909 101.109 304.275 100.916 304.598C100.723 304.921 100.484 305.195 100.197 305.422C99.9108 305.646 99.5892 305.816 99.2324 305.934C98.8783 306.051 98.4993 306.109 98.0957 306.109C97.4134 306.109 96.8066 305.943 96.2754 305.609C95.7441 305.276 95.3262 304.802 95.0215 304.187C94.7168 303.573 94.5645 302.844 94.5645 302C94.5645 301.156 94.7168 300.427 95.0215 299.812C95.3262 299.198 95.7441 298.724 96.2754 298.391C96.8066 298.057 97.4134 297.891 98.0957 297.891C98.4993 297.891 98.8783 297.949 99.2324 298.066C99.5892 298.184 99.9108 298.355 100.197 298.582C100.484 298.806 100.723 299.079 100.916 299.402C101.109 299.723 101.242 300.089 101.314 300.5ZM104.521 306.141C104.14 306.141 103.795 306.069 103.485 305.926C103.175 305.78 102.929 305.57 102.747 305.297C102.565 305.021 102.474 304.687 102.474 304.297C102.474 303.953 102.541 303.674 102.677 303.461C102.812 303.245 102.993 303.076 103.22 302.953C103.446 302.831 103.696 302.74 103.97 302.68C104.246 302.617 104.523 302.568 104.802 302.531C105.166 302.484 105.462 302.449 105.688 302.426C105.918 302.4 106.084 302.357 106.188 302.297C106.295 302.237 106.349 302.133 106.349 301.984V301.953C106.349 301.568 106.243 301.268 106.032 301.055C105.824 300.841 105.507 300.734 105.083 300.734C104.643 300.734 104.298 300.831 104.048 301.023C103.798 301.216 103.622 301.422 103.521 301.641L102.646 301.328C102.802 300.964 103.01 300.68 103.271 300.477C103.534 300.271 103.82 300.128 104.13 300.047C104.442 299.964 104.75 299.922 105.052 299.922C105.244 299.922 105.466 299.945 105.716 299.992C105.968 300.036 106.212 300.129 106.446 300.27C106.683 300.41 106.88 300.622 107.036 300.906C107.192 301.19 107.271 301.57 107.271 302.047V306H106.349V305.187H106.302C106.239 305.318 106.135 305.457 105.989 305.605C105.843 305.754 105.649 305.88 105.407 305.984C105.165 306.089 104.869 306.141 104.521 306.141ZM104.661 305.312C105.026 305.312 105.333 305.241 105.583 305.098C105.836 304.954 106.026 304.77 106.153 304.543C106.284 304.316 106.349 304.078 106.349 303.828V302.984C106.31 303.031 106.224 303.074 106.091 303.113C105.961 303.15 105.81 303.182 105.638 303.211C105.468 303.237 105.303 303.26 105.142 303.281C104.983 303.299 104.854 303.315 104.755 303.328C104.515 303.359 104.291 303.41 104.083 303.48C103.877 303.548 103.711 303.651 103.583 303.789C103.458 303.924 103.396 304.109 103.396 304.344C103.396 304.664 103.514 304.906 103.751 305.07C103.991 305.232 104.294 305.312 104.661 305.312ZM108.953 306V300H109.844V300.906H109.906C110.016 300.609 110.214 300.368 110.5 300.184C110.786 299.999 111.109 299.906 111.469 299.906C111.536 299.906 111.621 299.908 111.723 299.91C111.824 299.913 111.901 299.917 111.953 299.922V300.859C111.922 300.852 111.85 300.84 111.738 300.824C111.629 300.806 111.513 300.797 111.391 300.797C111.099 300.797 110.839 300.858 110.609 300.98C110.383 301.1 110.203 301.267 110.07 301.48C109.94 301.691 109.875 301.932 109.875 302.203V306H108.953ZM115.379 306.125C114.801 306.125 114.302 305.997 113.883 305.742C113.466 305.484 113.145 305.125 112.918 304.664C112.694 304.201 112.582 303.661 112.582 303.047C112.582 302.432 112.694 301.891 112.918 301.422C113.145 300.951 113.46 300.583 113.863 300.32C114.27 300.055 114.743 299.922 115.285 299.922C115.598 299.922 115.906 299.974 116.211 300.078C116.516 300.182 116.793 300.352 117.043 300.586C117.293 300.818 117.492 301.125 117.641 301.508C117.789 301.891 117.863 302.362 117.863 302.922V303.312H113.238V302.516H116.926C116.926 302.177 116.858 301.875 116.723 301.609C116.59 301.344 116.4 301.134 116.152 300.98C115.908 300.827 115.618 300.75 115.285 300.75C114.918 300.75 114.6 300.841 114.332 301.023C114.066 301.203 113.862 301.437 113.719 301.727C113.576 302.016 113.504 302.326 113.504 302.656V303.188C113.504 303.641 113.582 304.025 113.738 304.34C113.897 304.652 114.117 304.891 114.398 305.055C114.68 305.216 115.007 305.297 115.379 305.297C115.621 305.297 115.84 305.263 116.035 305.195C116.233 305.125 116.404 305.021 116.547 304.883C116.69 304.742 116.801 304.568 116.879 304.359L117.77 304.609C117.676 304.911 117.518 305.177 117.297 305.406C117.076 305.633 116.802 305.81 116.477 305.937C116.151 306.063 115.785 306.125 115.379 306.125ZM121.781 306.125C121.203 306.125 120.704 305.997 120.285 305.742C119.868 305.484 119.547 305.125 119.32 304.664C119.096 304.201 118.984 303.661 118.984 303.047C118.984 302.432 119.096 301.891 119.32 301.422C119.547 300.951 119.862 300.583 120.266 300.32C120.672 300.055 121.146 299.922 121.688 299.922C122 299.922 122.309 299.974 122.613 300.078C122.918 300.182 123.195 300.352 123.445 300.586C123.695 300.818 123.895 301.125 124.043 301.508C124.191 301.891 124.266 302.362 124.266 302.922V303.312H119.641V302.516H123.328C123.328 302.177 123.26 301.875 123.125 301.609C122.992 301.344 122.802 301.134 122.555 300.98C122.31 300.827 122.021 300.75 121.688 300.75C121.32 300.75 121.003 300.841 120.734 301.023C120.469 301.203 120.264 301.437 120.121 301.727C119.978 302.016 119.906 302.326 119.906 302.656V303.188C119.906 303.641 119.984 304.025 120.141 304.34C120.299 304.652 120.52 304.891 120.801 305.055C121.082 305.216 121.409 305.297 121.781 305.297C122.023 305.297 122.242 305.263 122.438 305.195C122.635 305.125 122.806 305.021 122.949 304.883C123.092 304.742 123.203 304.568 123.281 304.359L124.172 304.609C124.078 304.911 123.921 305.177 123.699 305.406C123.478 305.633 123.204 305.81 122.879 305.937C122.553 306.063 122.188 306.125 121.781 306.125ZM125.668 306V300H126.559V300.906H126.621C126.73 300.609 126.928 300.368 127.215 300.184C127.501 299.999 127.824 299.906 128.184 299.906C128.251 299.906 128.336 299.908 128.438 299.91C128.539 299.913 128.616 299.917 128.668 299.922V300.859C128.637 300.852 128.565 300.84 128.453 300.824C128.344 300.806 128.228 300.797 128.105 300.797C127.814 300.797 127.553 300.858 127.324 300.98C127.098 301.1 126.918 301.267 126.785 301.48C126.655 301.691 126.59 301.932 126.59 302.203V306H125.668ZM132.979 306V298H137.808V298.859H133.948V301.562H137.558V302.422H133.948V305.141H137.87V306H132.979ZM140.351 302.391V306H139.429V300H140.319V300.937H140.397C140.538 300.633 140.752 300.388 141.038 300.203C141.325 300.016 141.694 299.922 142.147 299.922C142.554 299.922 142.909 300.005 143.214 300.172C143.519 300.336 143.756 300.586 143.925 300.922C144.094 301.255 144.179 301.677 144.179 302.188V306H143.257V302.25C143.257 301.779 143.134 301.411 142.89 301.148C142.645 300.883 142.309 300.75 141.882 300.75C141.588 300.75 141.325 300.814 141.093 300.941C140.864 301.069 140.683 301.255 140.55 301.5C140.417 301.745 140.351 302.042 140.351 302.391ZM146.785 302.391V306H145.863V298H146.785V300.937H146.863C147.004 300.628 147.215 300.382 147.496 300.199C147.78 300.014 148.158 299.922 148.629 299.922C149.038 299.922 149.396 300.004 149.703 300.168C150.01 300.329 150.249 300.578 150.418 300.914C150.59 301.247 150.676 301.672 150.676 302.188V306H149.754V302.25C149.754 301.773 149.63 301.405 149.383 301.145C149.138 300.882 148.798 300.75 148.363 300.75C148.061 300.75 147.79 300.814 147.551 300.941C147.314 301.069 147.126 301.255 146.988 301.5C146.853 301.745 146.785 302.042 146.785 302.391ZM154.128 306.141C153.748 306.141 153.403 306.069 153.093 305.926C152.783 305.78 152.537 305.57 152.354 305.297C152.172 305.021 152.081 304.687 152.081 304.297C152.081 303.953 152.149 303.674 152.284 303.461C152.42 303.245 152.601 303.076 152.827 302.953C153.054 302.831 153.304 302.74 153.577 302.68C153.853 302.617 154.131 302.568 154.409 302.531C154.774 302.484 155.069 302.449 155.296 302.426C155.525 302.4 155.692 302.357 155.796 302.297C155.903 302.237 155.956 302.133 155.956 301.984V301.953C155.956 301.568 155.851 301.268 155.64 301.055C155.431 300.841 155.115 300.734 154.69 300.734C154.25 300.734 153.905 300.831 153.655 301.023C153.405 301.216 153.229 301.422 153.128 301.641L152.253 301.328C152.409 300.964 152.618 300.68 152.878 300.477C153.141 300.271 153.427 300.128 153.737 300.047C154.05 299.964 154.357 299.922 154.659 299.922C154.852 299.922 155.073 299.945 155.323 299.992C155.576 300.036 155.819 300.129 156.054 300.27C156.291 300.41 156.487 300.622 156.644 300.906C156.8 301.19 156.878 301.57 156.878 302.047V306H155.956V305.187H155.909C155.847 305.318 155.743 305.457 155.597 305.605C155.451 305.754 155.257 305.88 155.015 305.984C154.772 306.089 154.477 306.141 154.128 306.141ZM154.269 305.312C154.633 305.312 154.94 305.241 155.19 305.098C155.443 304.954 155.633 304.77 155.761 304.543C155.891 304.316 155.956 304.078 155.956 303.828V302.984C155.917 303.031 155.831 303.074 155.698 303.113C155.568 303.15 155.417 303.182 155.245 303.211C155.076 303.237 154.91 303.26 154.749 303.281C154.59 303.299 154.461 303.315 154.362 303.328C154.123 303.359 153.899 303.41 153.69 303.48C153.485 303.548 153.318 303.651 153.19 303.789C153.065 303.924 153.003 304.109 153.003 304.344C153.003 304.664 153.121 304.906 153.358 305.07C153.598 305.232 153.901 305.312 154.269 305.312ZM159.482 302.391V306H158.561V300H159.451V300.937H159.529C159.67 300.633 159.883 300.388 160.17 300.203C160.456 300.016 160.826 299.922 161.279 299.922C161.686 299.922 162.041 300.005 162.346 300.172C162.65 300.336 162.887 300.586 163.057 300.922C163.226 301.255 163.311 301.677 163.311 302.188V306H162.389V302.25C162.389 301.779 162.266 301.411 162.021 301.148C161.777 300.883 161.441 300.75 161.014 300.75C160.719 300.75 160.456 300.814 160.225 300.941C159.995 301.069 159.814 301.255 159.682 301.5C159.549 301.745 159.482 302.042 159.482 302.391ZM167.433 306.125C166.87 306.125 166.386 305.992 165.979 305.727C165.573 305.461 165.261 305.095 165.042 304.629C164.823 304.163 164.714 303.63 164.714 303.031C164.714 302.422 164.826 301.884 165.05 301.418C165.276 300.949 165.591 300.583 165.995 300.32C166.401 300.055 166.875 299.922 167.417 299.922C167.839 299.922 168.219 300 168.558 300.156C168.896 300.312 169.174 300.531 169.39 300.812C169.606 301.094 169.74 301.422 169.792 301.797H168.87C168.8 301.523 168.644 301.281 168.401 301.07C168.162 300.857 167.839 300.75 167.433 300.75C167.073 300.75 166.758 300.844 166.487 301.031C166.219 301.216 166.009 301.478 165.858 301.816C165.71 302.152 165.636 302.547 165.636 303C165.636 303.464 165.709 303.867 165.854 304.211C166.003 304.555 166.211 304.822 166.479 305.012C166.75 305.202 167.068 305.297 167.433 305.297C167.672 305.297 167.89 305.255 168.085 305.172C168.28 305.089 168.446 304.969 168.581 304.812C168.716 304.656 168.813 304.469 168.87 304.25H169.792C169.74 304.604 169.611 304.923 169.405 305.207C169.202 305.488 168.933 305.712 168.597 305.879C168.263 306.043 167.875 306.125 167.433 306.125ZM173.655 306.125C173.077 306.125 172.578 305.997 172.159 305.742C171.743 305.484 171.421 305.125 171.194 304.664C170.97 304.201 170.858 303.661 170.858 303.047C170.858 302.432 170.97 301.891 171.194 301.422C171.421 300.951 171.736 300.583 172.14 300.32C172.546 300.055 173.02 299.922 173.562 299.922C173.874 299.922 174.183 299.974 174.487 300.078C174.792 300.182 175.069 300.352 175.319 300.586C175.569 300.818 175.769 301.125 175.917 301.508C176.065 301.891 176.14 302.362 176.14 302.922V303.312H171.515V302.516H175.202C175.202 302.177 175.134 301.875 174.999 301.609C174.866 301.344 174.676 301.134 174.429 300.98C174.184 300.827 173.895 300.75 173.562 300.75C173.194 300.75 172.877 300.841 172.608 301.023C172.343 301.203 172.138 301.437 171.995 301.727C171.852 302.016 171.78 302.326 171.78 302.656V303.188C171.78 303.641 171.858 304.025 172.015 304.34C172.174 304.652 172.394 304.891 172.675 305.055C172.956 305.216 173.283 305.297 173.655 305.297C173.897 305.297 174.116 305.263 174.312 305.195C174.509 305.125 174.68 305.021 174.823 304.883C174.966 304.742 175.077 304.568 175.155 304.359L176.046 304.609C175.952 304.911 175.795 305.177 175.573 305.406C175.352 305.633 175.078 305.81 174.753 305.937C174.427 306.063 174.062 306.125 173.655 306.125ZM177.542 306V300H178.433V300.937H178.511C178.636 300.617 178.838 300.368 179.116 300.191C179.395 300.012 179.729 299.922 180.12 299.922C180.516 299.922 180.845 300.012 181.108 300.191C181.374 300.368 181.581 300.617 181.729 300.937H181.792C181.946 300.628 182.176 300.382 182.483 300.199C182.791 300.014 183.159 299.922 183.589 299.922C184.125 299.922 184.564 300.09 184.905 300.426C185.246 300.759 185.417 301.279 185.417 301.984V306H184.495V301.984C184.495 301.542 184.374 301.225 184.132 301.035C183.89 300.845 183.604 300.75 183.276 300.75C182.854 300.75 182.528 300.878 182.296 301.133C182.064 301.385 181.948 301.706 181.948 302.094V306H181.011V301.891C181.011 301.549 180.9 301.275 180.679 301.066C180.457 300.855 180.172 300.75 179.823 300.75C179.584 300.75 179.36 300.814 179.151 300.941C178.946 301.069 178.779 301.246 178.651 301.473C178.526 301.697 178.464 301.956 178.464 302.25V306H177.542ZM189.618 306.125C189.04 306.125 188.541 305.997 188.122 305.742C187.705 305.484 187.384 305.125 187.157 304.664C186.933 304.201 186.821 303.661 186.821 303.047C186.821 302.432 186.933 301.891 187.157 301.422C187.384 300.951 187.699 300.583 188.103 300.32C188.509 300.055 188.983 299.922 189.524 299.922C189.837 299.922 190.146 299.974 190.45 300.078C190.755 300.182 191.032 300.352 191.282 300.586C191.532 300.818 191.731 301.125 191.88 301.508C192.028 301.891 192.103 302.362 192.103 302.922V303.312H187.478V302.516H191.165C191.165 302.177 191.097 301.875 190.962 301.609C190.829 301.344 190.639 301.134 190.392 300.98C190.147 300.827 189.858 300.75 189.524 300.75C189.157 300.75 188.84 300.841 188.571 301.023C188.306 301.203 188.101 301.437 187.958 301.727C187.815 302.016 187.743 302.326 187.743 302.656V303.188C187.743 303.641 187.821 304.025 187.978 304.34C188.136 304.652 188.356 304.891 188.638 305.055C188.919 305.216 189.246 305.297 189.618 305.297C189.86 305.297 190.079 305.263 190.274 305.195C190.472 305.125 190.643 305.021 190.786 304.883C190.929 304.742 191.04 304.568 191.118 304.359L192.009 304.609C191.915 304.911 191.757 305.177 191.536 305.406C191.315 305.633 191.041 305.81 190.716 305.937C190.39 306.063 190.024 306.125 189.618 306.125ZM194.427 302.391V306H193.505V300H194.396V300.937H194.474C194.614 300.633 194.828 300.388 195.114 300.203C195.401 300.016 195.771 299.922 196.224 299.922C196.63 299.922 196.985 300.005 197.29 300.172C197.595 300.336 197.832 300.586 198.001 300.922C198.17 301.255 198.255 301.677 198.255 302.188V306H197.333V302.25C197.333 301.779 197.211 301.411 196.966 301.148C196.721 300.883 196.385 300.75 195.958 300.75C195.664 300.75 195.401 300.814 195.169 300.941C194.94 301.069 194.759 301.255 194.626 301.5C194.493 301.745 194.427 302.042 194.427 302.391ZM202.549 300V300.781H199.439V300H202.549ZM200.346 298.562H201.268V304.281C201.268 304.542 201.305 304.737 201.381 304.867C201.459 304.995 201.558 305.081 201.678 305.125C201.8 305.167 201.929 305.187 202.064 305.187C202.166 305.187 202.249 305.182 202.314 305.172C202.38 305.159 202.432 305.148 202.471 305.141L202.658 305.969C202.596 305.992 202.508 306.016 202.396 306.039C202.285 306.065 202.143 306.078 201.971 306.078C201.71 306.078 201.455 306.022 201.205 305.91C200.958 305.798 200.752 305.628 200.588 305.398C200.426 305.169 200.346 304.88 200.346 304.531V298.562Z" fill="white"/>
</g>
</g>
<defs>
<filter id="filter0_b_6465_53796" x="60.5" y="-3" width="155" height="42" filterUnits="userSpaceOnUse" color-interpolation-filters="sRGB">
<feFlood flood-opacity="0" result="BackgroundImageFix"/>
<feGaussianBlur in="BackgroundImageFix" stdDeviation="2"/>
<feComposite in2="SourceAlpha" operator="in" result="effect1_backgroundBlur_6465_53796"/>
<feBlend mode="normal" in="SourceGraphic" in2="effect1_backgroundBlur_6465_53796" result="shape"/>
</filter>
<filter id="filter1_b_6465_53796" x="245.5" y="198" width="142" height="42" filterUnits="userSpaceOnUse" color-interpolation-filters="sRGB">
<feFlood flood-opacity="0" result="BackgroundImageFix"/>
<feGaussianBlur in="BackgroundImageFix" stdDeviation="2"/>
<feComposite in2="SourceAlpha" operator="in" result="effect1_backgroundBlur_6465_53796"/>
<feBlend mode="normal" in="SourceGraphic" in2="effect1_backgroundBlur_6465_53796" result="shape"/>
</filter>
<filter id="filter2_b_6465_53796" x="-3" y="204" width="157" height="42" filterUnits="userSpaceOnUse" color-interpolation-filters="sRGB">
<feFlood flood-opacity="0" result="BackgroundImageFix"/>
<feGaussianBlur in="BackgroundImageFix" stdDeviation="2"/>
<feComposite in2="SourceAlpha" operator="in" result="effect1_backgroundBlur_6465_53796"/>
<feBlend mode="normal" in="SourceGraphic" in2="effect1_backgroundBlur_6465_53796" result="shape"/>
</filter>
<filter id="filter3_b_6465_53796" x="73.5" y="281" width="150" height="41" filterUnits="userSpaceOnUse" color-interpolation-filters="sRGB">
<feFlood flood-opacity="0" result="BackgroundImageFix"/>
<feGaussianBlur in="BackgroundImageFix" stdDeviation="2"/>
<feComposite in2="SourceAlpha" operator="in" result="effect1_backgroundBlur_6465_53796"/>
<feBlend mode="normal" in="SourceGraphic" in2="effect1_backgroundBlur_6465_53796" result="shape"/>
</filter>
<clipPath id="clip0_6465_53796">
<rect width="383" height="322" fill="white" transform="translate(0.5)"/>
</clipPath>
</defs>
</svg>
