<?xml version="1.0" encoding="UTF-8"?>
<svg xmlns="http://www.w3.org/2000/svg" version="1.1" width="500" height="500" viewBox="0 0 500 500"><rect x="0" y="0" width="500" height="500" fill="#ffffff"/><g transform="scale(17.241)"><g transform="translate(0,0)"><path fill-rule="evenodd" d="M9 0L9 2L8 2L8 3L9 3L9 2L10 2L10 3L13 3L13 2L14 2L14 1L12 1L12 0ZM17 0L17 1L15 1L15 6L14 6L14 5L13 5L13 6L12 6L12 4L11 4L11 6L10 6L10 7L9 7L9 6L8 6L8 8L4 8L4 9L3 9L3 8L0 8L0 9L2 9L2 10L1 10L1 11L0 11L0 12L2 12L2 13L1 13L1 16L0 16L0 17L1 17L1 16L2 16L2 14L4 14L4 13L5 13L5 11L9 11L9 12L10 12L10 13L8 13L8 12L6 12L6 13L7 13L7 14L6 14L6 15L3 15L3 16L6 16L6 17L7 17L7 18L4 18L4 17L3 17L3 19L5 19L5 20L2 20L2 19L1 19L1 18L0 18L0 19L1 19L1 20L0 20L0 21L1 21L1 20L2 20L2 21L8 21L8 25L9 25L9 24L10 24L10 25L11 25L11 26L13 26L13 25L14 25L14 27L10 27L10 26L8 26L8 29L9 29L9 28L10 28L10 29L13 29L13 28L16 28L16 27L17 27L17 29L19 29L19 28L20 28L20 29L21 29L21 28L22 28L22 29L26 29L26 28L25 28L25 27L26 27L26 26L27 26L27 25L28 25L28 27L27 27L27 29L29 29L29 28L28 28L28 27L29 27L29 24L27 24L27 25L26 25L26 26L25 26L25 24L26 24L26 22L27 22L27 23L29 23L29 21L26 21L26 22L25 22L25 20L26 20L26 19L25 19L25 18L27 18L27 20L28 20L28 19L29 19L29 16L28 16L28 15L29 15L29 12L28 12L28 11L29 11L29 9L28 9L28 10L26 10L26 9L27 9L27 8L26 8L26 9L25 9L25 10L24 10L24 11L25 11L25 10L26 10L26 11L27 11L27 13L28 13L28 14L27 14L27 17L26 17L26 12L25 12L25 14L23 14L23 13L24 13L24 12L23 12L23 8L21 8L21 5L20 5L20 3L21 3L21 1L20 1L20 0ZM10 1L10 2L11 2L11 1ZM18 1L18 2L17 2L17 3L16 3L16 5L18 5L18 6L17 6L17 7L16 7L16 6L15 6L15 7L16 7L16 8L13 8L13 10L11 10L11 9L12 9L12 6L11 6L11 8L10 8L10 10L9 10L9 11L10 11L10 12L11 12L11 13L10 13L10 14L11 14L11 16L9 16L9 17L8 17L8 15L6 15L6 16L7 16L7 17L8 17L8 19L10 19L10 20L11 20L11 22L10 22L10 21L9 21L9 23L11 23L11 24L12 24L12 25L13 25L13 23L14 23L14 24L15 24L15 27L16 27L16 26L18 26L18 27L19 27L19 25L20 25L20 23L19 23L19 21L20 21L20 20L21 20L21 19L22 19L22 20L23 20L23 19L24 19L24 18L25 18L25 15L24 15L24 16L23 16L23 15L22 15L22 14L20 14L20 13L19 13L19 11L21 11L21 12L22 12L22 9L19 9L19 8L20 8L20 6L19 6L19 5L18 5L18 2L19 2L19 1ZM13 6L13 7L14 7L14 6ZM18 6L18 7L17 7L17 8L16 8L16 12L17 12L17 13L15 13L15 14L13 14L13 13L11 13L11 14L12 14L12 16L15 16L15 17L16 17L16 15L15 15L15 14L17 14L17 18L16 18L16 19L17 19L17 21L18 21L18 20L19 20L19 19L17 19L17 18L18 18L18 14L17 14L17 13L18 13L18 10L17 10L17 9L18 9L18 8L19 8L19 6ZM6 9L6 10L7 10L7 9ZM3 10L3 11L2 11L2 12L3 12L3 11L5 11L5 10ZM13 10L13 11L11 11L11 12L15 12L15 10ZM20 15L20 16L19 16L19 17L20 17L20 18L21 18L21 17L22 17L22 19L23 19L23 16L21 16L21 15ZM13 17L13 18L14 18L14 19L11 19L11 20L12 20L12 23L13 23L13 21L14 21L14 23L15 23L15 24L16 24L16 23L17 23L17 25L19 25L19 24L18 24L18 23L17 23L17 22L16 22L16 23L15 23L15 18L14 18L14 17ZM27 17L27 18L28 18L28 17ZM6 19L6 20L7 20L7 19ZM21 21L21 24L24 24L24 21ZM22 22L22 23L23 23L23 22ZM21 25L21 26L20 26L20 27L21 27L21 26L22 26L22 28L24 28L24 27L23 27L23 25ZM0 0L0 7L7 7L7 0ZM1 1L1 6L6 6L6 1ZM2 2L2 5L5 5L5 2ZM22 0L22 7L29 7L29 0ZM23 1L23 6L28 6L28 1ZM24 2L24 5L27 5L27 2ZM0 22L0 29L7 29L7 22ZM1 23L1 28L6 28L6 23ZM2 24L2 27L5 27L5 24Z" fill="#000000"/></g></g></svg>
