<svg width="14" height="10" viewBox="0 0 14 10" fill="none" xmlns="http://www.w3.org/2000/svg"><path d="M14 4.95691C14 4.92305 14 4.88458 13.9984 4.83995C13.9969 4.7153 13.9938 4.57525 13.9906 4.42598C13.9781 3.99661 13.9563 3.56879 13.9219 3.16559C13.875 2.61003 13.8062 2.14681 13.7125 1.79901C13.6136 1.43606 13.4196 1.10503 13.1501 0.839022C12.8806 0.573014 12.5449 0.381342 12.1766 0.283164C11.7344 0.166205 10.8687 0.093875 9.65 0.0492459C9.07031 0.0277008 8.45 0.0138503 7.82969 0.00615565C7.6125 0.00307778 7.41094 0.00153894 7.22969 0H6.77031C6.58906 0.00153894 6.3875 0.00307778 6.17031 0.00615565C5.55 0.0138503 4.92969 0.0277008 4.35 0.0492459C3.13125 0.0954139 2.26406 0.167744 1.82344 0.283164C1.455 0.381101 1.11917 0.572692 0.8496 0.838737C0.580029 1.10478 0.386188 1.43594 0.2875 1.79901C0.192188 2.14681 0.125 2.61003 0.078125 3.16559C0.04375 3.56879 0.021875 3.99661 0.00937498 4.42598C0.00468748 4.57525 0.00312498 4.7153 0.00156248 4.83995C0.00156248 4.88458 0 4.92305 0 4.95691V5.04309C0 5.07695 -2.38651e-08 5.11542 0.00156248 5.16005C0.00312498 5.2847 0.00624998 5.42475 0.00937498 5.57402C0.021875 6.00339 0.04375 6.43121 0.078125 6.83441C0.125 7.38997 0.19375 7.85319 0.2875 8.20098C0.4875 8.93813 1.075 9.51985 1.82344 9.71684C2.26406 9.83379 3.13125 9.90612 4.35 9.95075C4.92969 9.9723 5.55 9.98615 6.17031 9.99384C6.3875 9.99692 6.58906 9.99846 6.77031 10H7.22969C7.41094 9.99846 7.6125 9.99692 7.82969 9.99384C8.45 9.98615 9.07031 9.9723 9.65 9.95075C10.8687 9.90458 11.7359 9.83226 12.1766 9.71684C12.925 9.51985 13.5125 8.93967 13.7125 8.20098C13.8078 7.85319 13.875 7.38997 13.9219 6.83441C13.9563 6.43121 13.9781 6.00339 13.9906 5.57402C13.9953 5.42475 13.9969 5.2847 13.9984 5.16005C13.9984 5.11542 14 5.07695 14 5.04309V4.95691ZM12.875 5.03693C12.875 5.06925 12.875 5.10465 12.8734 5.1462C12.8719 5.26624 12.8688 5.39858 12.8656 5.5417C12.8547 5.95106 12.8328 6.36042 12.8 6.74053C12.7578 7.23607 12.6984 7.64235 12.625 7.91474C12.5281 8.27024 12.2437 8.55186 11.8844 8.64574C11.5562 8.73192 10.7297 8.80117 9.60625 8.84272C9.0375 8.86426 8.425 8.87812 7.81406 8.88581C7.6 8.88889 7.40156 8.89043 7.22344 8.89043H6.77656L6.18594 8.88581C5.575 8.87812 4.96406 8.86426 4.39375 8.84272C3.27031 8.79963 2.44219 8.73192 2.11562 8.64574C1.75625 8.55032 1.47187 8.27024 1.375 7.91474C1.30156 7.64235 1.24219 7.23607 1.2 6.74053C1.16719 6.36042 1.14688 5.95106 1.13438 5.5417C1.12969 5.39858 1.12813 5.2647 1.12656 5.1462C1.12656 5.10465 1.125 5.06771 1.125 5.03693V4.96307C1.125 4.93075 1.125 4.89535 1.12656 4.8538C1.12813 4.73376 1.13125 4.60142 1.13438 4.45829C1.14531 4.04894 1.16719 3.63958 1.2 3.25946C1.24219 2.76393 1.30156 2.35765 1.375 2.08526C1.47187 1.72976 1.75625 1.44814 2.11562 1.35426C2.44375 1.26808 3.27031 1.19883 4.39375 1.15728C4.9625 1.13573 5.575 1.12188 6.18594 1.11419C6.4 1.11111 6.59844 1.10957 6.77656 1.10957H7.22344L7.81406 1.11419C8.425 1.12188 9.03594 1.13573 9.60625 1.15728C10.7297 1.20037 11.5578 1.26808 11.8844 1.35426C12.2437 1.44968 12.5281 1.72976 12.625 2.08526C12.6984 2.35765 12.7578 2.76393 12.8 3.25946C12.8328 3.63958 12.8531 4.04894 12.8656 4.45829C12.8703 4.60142 12.8719 4.7353 12.8734 4.8538C12.8734 4.89535 12.875 4.93229 12.875 4.96307V5.03693ZM5.60938 7.06217L9.23438 4.98461L5.60938 2.93783V7.06217Z" fill="#E9F3FC"></path></svg>